<svg id="Capa_1" enable-background="new 0 0 512 512" height="512" viewBox="0 0 512 512" width="512" xmlns="http://www.w3.org/2000/svg"><g><path d="m448.078 512h-365.182c-23.208 0-42.089-18.755-42.089-41.808v-270.252c0-8.284 6.716-15 15-15s15 6.716 15 15v270.252c0 6.511 5.423 11.808 12.089 11.808h365.182c14.722 0 26.699-11.783 26.699-26.266s-11.977-26.264-26.697-26.265l-29.239-.002c-23.207-.002-42.087-18.757-42.087-41.808v-49.7c0-8.284 6.716-15 15-15s15 6.716 15 15v49.7c0 6.511 5.423 11.808 12.089 11.808l29.238.002c31.262.001 56.696 25.242 56.696 56.266 0 31.025-25.435 56.265-56.699 56.265z" fill="#d5e8fe"/><path d="m431.854 0c-8.284 0-15 6.716-15 15v36.706c0 8.284 6.716 15 15 15s15-6.716 15-15v-36.706c0-8.284-6.715-15-15-15z" fill="#b5dbff"/><path d="m351.653 0c-8.284 0-15 6.716-15 15v36.706c0 8.284 6.716 15 15 15s15-6.716 15-15v-36.706c0-8.284-6.715-15-15-15z" fill="#d5e8fe"/><path d="m468.912 44.586h-154.315c-8.284 0-15 6.716-15 15v62.011c0 8.284 6.716 15 15 15h154.315c8.284 0 15-6.716 15-15v-62.011c0-8.284-6.716-15-15-15z" fill="#61729b"/><path d="m468.912 44.586h-77.157v92.011h77.157c8.284 0 15-6.716 15-15v-62.011c0-8.284-6.716-15-15-15z" fill="#47568c"/><path d="m497 106.597h-210.492c-8.284 0-15 6.716-15 15v209.219c0 8.284 6.716 15 15 15h210.492c8.284 0 15-6.716 15-15v-209.219c0-8.284-6.716-15-15-15z" fill="#47568c"/><path d="m497 106.597h-105.246v239.219h105.246c8.284 0 15-6.716 15-15v-209.219c0-8.284-6.716-15-15-15z" fill="#29376d"/><path d="m55.807 66.706c-8.284 0-15-6.716-15-15v-36.706c0-8.284 6.716-15 15-15s15 6.716 15 15v36.706c0 8.284-6.716 15-15 15z" fill="#d5e8fe"/><path d="m70.807 51.706v-36.706c0-8.284-6.716-15-15-15v66.706c8.284 0 15-6.716 15-15z" fill="#b5dbff"/><path d="m96.613 44.586h-81.613c-8.284 0-15 6.716-15 15v131.107c0 8.284 6.716 15 15 15h81.613c8.284 0 15-6.716 15-15v-131.107c0-8.284-6.716-15-15-15z" fill="#47568c"/><path d="m375.814 283.54c-3.865 0-7.729-1.484-10.662-4.449-5.827-5.888-5.778-15.385.11-21.213l21.106-20.888-16.122-15.954c-2.847-2.817-4.449-6.656-4.449-10.662s1.602-7.845 4.449-10.662l26.779-26.501c5.889-5.827 15.386-5.777 21.213.111 5.828 5.888 5.778 15.386-.11 21.213l-16.006 15.839 16.122 15.954c2.847 2.817 4.449 6.656 4.449 10.662 0 4.005-1.602 7.844-4.449 10.662l-31.88 31.55c-2.923 2.894-6.737 4.338-10.55 4.338z" fill="#ffe470"/><path d="m96.613 44.586h-40.806v161.107h40.807c8.284 0 15-6.716 15-15v-131.107c-.001-8.284-6.717-15-15.001-15z" fill="#29376d"/></g><path d="m402.123 210.374 16.006-15.839c5.888-5.827 5.938-15.325.11-21.213-5.827-5.889-15.324-5.938-21.213-.111l-5.272 5.217v95.441l26.491-26.217c2.847-2.818 4.449-6.657 4.449-10.662 0-4.006-1.602-7.845-4.449-10.662z" fill="#fabe2c"/></svg>