<?xml version="1.0" encoding="iso-8859-1"?>
<!-- Generator: Adobe Illustrator 19.0.0, SVG Export Plug-In . SVG Version: 6.00 Build 0)  -->
<svg version="1.1" id="Capa_1" xmlns="http://www.w3.org/2000/svg" xmlns:xlink="http://www.w3.org/1999/xlink" x="0px" y="0px"
	 viewBox="0 0 512 512" style="enable-background:new 0 0 512 512;" xml:space="preserve">
<path style="fill:#7383BF;" d="M366.345,512c-29.21,0-52.966-23.755-52.966-52.966V264.828c0-29.21-23.755-52.966-52.966-52.966
	c-4.873,0-8.828-3.955-8.828-8.828c0-4.873,3.955-8.828,8.828-8.828c38.938,0,70.621,31.682,70.621,70.621v194.207
	c0,19.474,15.837,35.31,35.31,35.31s35.31-15.837,35.31-35.31V264.828c0-4.873,3.955-8.828,8.828-8.828s8.828,3.955,8.828,8.828
	v194.207C419.31,488.245,395.555,512,366.345,512z"/>
<path style="fill:#E7ECED;" d="M410.483,264.828L410.483,264.828c-9.754,0-17.655-7.901-17.655-17.655V220.69h35.31v26.483
	C428.138,256.927,420.237,264.828,410.483,264.828z"/>
<path style="fill:#AFB6BB;" d="M454.63,229.517h-88.294c-14.627,0-26.474-11.847-26.474-26.474v-88.285h141.241v88.285
	C481.103,217.671,469.257,229.517,454.63,229.517z"/>
<rect x="83.862" style="fill:#3C5168;" width="105.931" height="44.138"/>
<path style="fill:#28384C;" d="M235.423,35.31H38.232c-13.806,0-24.991,11.185-24.991,24.991v54.457v79.448v79.448v79.448v79.448
	v54.457c0,13.806,11.185,24.991,24.991,24.991h197.191c13.806,0,24.991-11.185,24.991-24.991v-54.457v-79.448v-79.448v-79.448
	v-79.448V60.301C260.414,46.495,249.229,35.31,235.423,35.31z"/>
<g>
	<path style="fill:#AFB6BB;" d="M384,97.103h-35.31V17.655C348.69,7.901,356.59,0,366.345,0l0,0C376.099,0,384,7.901,384,17.655
		V97.103z"/>
	<path style="fill:#AFB6BB;" d="M472.276,97.103h-35.31V17.655C436.966,7.901,444.866,0,454.621,0l0,0
		c9.754,0,17.655,7.901,17.655,17.655V97.103z"/>
</g>
<rect x="322.207" y="88.276" style="fill:#E7ECED;" width="176.552" height="35.31"/>
<polygon style="fill:#EBBA16;" points="207.448,256 154.483,256 189.793,123.586 66.207,273.655 119.172,273.655 83.862,406.069 "/>
<g>
</g>
<g>
</g>
<g>
</g>
<g>
</g>
<g>
</g>
<g>
</g>
<g>
</g>
<g>
</g>
<g>
</g>
<g>
</g>
<g>
</g>
<g>
</g>
<g>
</g>
<g>
</g>
<g>
</g>
</svg>
