<svg id="color" enable-background="new 0 0 24 24" height="512" viewBox="0 0 24 24" width="512" xmlns="http://www.w3.org/2000/svg"><path d="m4.12 20.88c-.192 0-.384-.073-.53-.22-2.315-2.315-3.59-5.39-3.59-8.66s1.275-6.345 3.59-8.66c.293-.293.768-.293 1.061 0s.293.768 0 1.061c-2.032 2.031-3.151 4.73-3.151 7.599s1.119 5.568 3.15 7.6c.293.293.293.768 0 1.061-.146.146-.338.219-.53.219z" fill="#03a9f4"/><path d="m4.12 3.12c-.192 0-.384.073-.53.22-2.315 2.315-3.59 5.39-3.59 8.66s1.275 6.345 3.59 8.66c.146.146.338.22.53.22s.384-.073.53-.22c.005-.005.01-.01.015-.016-2.4-2.107-3.915-5.199-3.915-8.644s1.515-6.537 3.916-8.645c-.005-.005-.01-.01-.016-.015-.146-.147-.338-.22-.53-.22z" fill="#0393d4"/><path d="m6.24 18.76c-.192 0-.384-.073-.53-.22-1.748-1.747-2.71-4.069-2.71-6.54s.962-4.793 2.71-6.54c.293-.293.768-.293 1.061 0s.293.768 0 1.061c-1.465 1.463-2.271 3.409-2.271 5.479s.806 4.016 2.271 5.479c.293.292.293.768 0 1.061-.147.147-.339.22-.531.22z" fill="#03a9f4"/><path d="m6.24 5.24c-.192 0-.384.073-.53.22-1.748 1.747-2.71 4.069-2.71 6.54s.962 4.793 2.71 6.54c.146.146.338.22.53.22s.384-.073.53-.22c.008-.008.015-.015.022-.023-1.859-1.559-3.042-3.9-3.042-6.517s1.182-4.958 3.043-6.517c-.008-.008-.015-.015-.022-.023-.147-.147-.339-.22-.531-.22z" fill="#0393d4"/><path d="m9.823 20c-.107 0-.216-.023-.318-.071-.324-.152-.496-.512-.41-.86l1.446-5.819h-2.791c-.28 0-.537-.156-.666-.405s-.108-.549.054-.778l5.483-7.75c.2-.282.565-.391.884-.266.321.125.516.452.472.793l-.625 4.906h2.898c.283 0 .542.159.669.411.128.252.103.555-.064.783l-6.427 8.75c-.145.198-.372.306-.605.306z" fill="#ffc107"/><path d="m16.25 9.75h-2.898l-2.811 3.5-1.446 5.819c-.086.348.085.708.41.86.102.048.211.071.318.071.233 0 .46-.108.605-.306l6.427-8.75c.167-.228.192-.53.064-.783-.127-.252-.386-.411-.669-.411z" fill="#dea806"/><path d="m19.88 20.88c-.192 0-.384-.073-.53-.22-.293-.293-.293-.768 0-1.061 2.032-2.032 3.15-4.73 3.15-7.6 0-2.869-1.119-5.568-3.15-7.6-.293-.293-.293-.768 0-1.061s.768-.293 1.061 0c2.314 2.317 3.589 5.392 3.589 8.662s-1.275 6.345-3.59 8.66c-.146.147-.338.22-.53.22z" fill="#03a9f4"/><path d="m19.334 3.355c-.277.294-.272.758.016 1.045 2.032 2.032 3.15 4.73 3.15 7.6 0 2.869-1.119 5.568-3.15 7.6-.288.288-.293.751-.015 1.045 2.4-2.108 3.916-5.199 3.916-8.645-.001-3.445-1.516-6.537-3.917-8.645z" fill="#0393d4"/><path d="m17.76 18.76c-.192 0-.384-.073-.53-.22-.293-.293-.293-.768 0-1.061 1.464-1.463 2.27-3.409 2.27-5.479s-.806-4.016-2.271-5.479c-.293-.292-.293-.768 0-1.061s.768-.293 1.061 0c1.748 1.747 2.71 4.069 2.71 6.54s-.962 4.793-2.71 6.54c-.146.147-.338.22-.53.22z" fill="#03a9f4"/><path d="m17.207 5.483c-.271.294-.263.753.022 1.037 1.465 1.464 2.271 3.41 2.271 5.48s-.806 4.016-2.271 5.479c-.285.285-.293.743-.022 1.037 1.86-1.559 3.043-3.9 3.043-6.517 0-2.616-1.183-4.957-3.043-6.516z" fill="#0393d4"/></svg>