<svg id="_x35_0" enable-background="new 0 0 512 512" height="512" viewBox="0 0 512 512" width="512" xmlns="http://www.w3.org/2000/svg"><g><g><circle cx="256" cy="256" fill="#5368b7" r="256"/><circle cx="256" cy="256" fill="#6c7ed5" r="194.438"/></g><g><g><path d="m462.93 406.75c-46.56 63.8-121.91 105.25-206.93 105.25s-160.37-41.45-206.93-105.25z" fill="#d48d77"/><g fill="#eea47d"><path d="m380.58 406.75v72.95c-6.668 3.708-13.507 7.145-20.48 10.25v-83.2z"/><path d="m462.92 406.75c-4.978 6.838-10.303 13.422-15.94 19.73v-19.73z"/><path d="m200.532 406.75v42.24c0 5.66-4.59 10.25-10.25 10.25-5.65 0-10.24-4.59-10.24-10.25v-42.24z"/><path d="m305.71 437.94v69.23c-6.74 1.33-13.57 2.39-20.49 3.17v-72.4c0-5.65 4.59-10.24 10.24-10.24 5.656.004 10.249 4.576 10.25 10.24z"/><path d="m427.21 434.63v11.68c-6.53 5.9-13.37 11.45-20.49 16.63v-28.31c.528-13.576 19.964-13.571 20.49 0z"/><path d="m248.63 406.75v105.14c-6.849-.186-13.674-.653-20.48-1.39v-103.75z"/><path d="m163.68 460.62v34.23c-6.98-2.7-13.81-5.7-20.48-8.98v-25.25c.518-13.58 19.966-13.573 20.48 0z"/><path d="m95.83 407.27v48.44c-7.145-5.736-13.984-11.856-20.48-18.32v-30.12c0-.17 0-.35.01-.52h20.46c.01.18.01.35.01.52z"/></g></g></g><g><path d="m233.187 341.816h-45.595c-8.073 0-14.617 6.544-14.617 14.617v60.212h74.829v-60.212c0-8.073-6.544-14.617-14.617-14.617z" fill="#334353"/><path d="m296.117 416.645h-171.455c-8.755 0-15.853 7.097-15.853 15.853 0 8.755 7.097 15.853 15.853 15.853h171.455c8.755 0 15.853-7.097 15.853-15.853 0-8.756-7.098-15.853-15.853-15.853z" fill="#334353"/><path d="m263.247 416.645h-105.716c-5.398 0-9.774 4.376-9.774 9.774 0 5.398 4.376 9.774 9.774 9.774h105.716c5.398 0 9.774-4.376 9.774-9.774.001-5.398-4.375-9.774-9.774-9.774z" fill="#3e4e60"/><path d="m371.709 169.332v178.873c0 4.877-1.45 9.436-3.954 13.247-3.142 4.877-7.986 8.513-13.709 10.106-2.087.604-4.317.923-6.569.923h-274.175c-2.296 0-4.482-.319-6.569-.923-5.723-1.593-10.567-5.229-13.709-10.106-2.505-3.812-3.954-8.37-3.954-13.247v-178.873c0-2.252.318-4.482.912-6.569 2.263-8.096 8.623-14.489 16.751-16.751 2.087-.593 4.317-.912 6.569-.912h274.175c2.296 0 4.482.319 6.569.912 8.095 2.263 14.489 8.623 16.751 16.751.593 2.087.912 4.317.912 6.569z" fill="#3f5d77"/><path d="m84.407 169.332v178.873c0 4.877-1.45 9.436-3.966 13.247-3.141 4.877-7.986 8.513-13.709 10.106-5.723-1.593-10.567-5.229-13.709-10.106-2.505-3.812-3.954-8.37-3.954-13.247v-178.873c0-11.094 7.447-20.453 17.663-23.32 10.217 2.866 17.675 12.225 17.675 23.32z" fill="#3e4e60"/><path d="m371.709 169.332v178.873c0 4.877-1.45 9.436-3.954 13.247-3.142 4.877-7.986 8.513-13.709 10.106-5.723-1.593-10.567-5.229-13.709-10.106-2.516-3.812-3.966-8.37-3.966-13.247v-178.873c0-11.127 7.492-20.486 17.674-23.32 10.172 2.833 17.664 12.192 17.664 23.32z" fill="#3f6c8e"/><path d="m371.709 322.478v25.726c0 4.877-1.45 9.436-3.954 13.247-3.142 4.877-7.986 8.513-13.709 10.106-2.087.604-4.317.923-6.569.923h-274.175c-2.296 0-4.482-.319-6.569-.923-5.723-1.593-10.567-5.229-13.709-10.106-2.505-3.812-3.954-8.37-3.954-13.247v-25.726z" fill="#3e4e60"/><path d="m84.407 322.478v25.726c0 4.877-1.45 9.436-3.966 13.247-3.141 4.877-7.986 8.513-13.709 10.106-5.723-1.593-10.567-5.229-13.709-10.106-2.505-3.812-3.954-8.37-3.954-13.247v-25.726z" fill="#334353"/><path d="m371.709 322.478v25.726c0 4.877-1.45 9.436-3.954 13.247-3.142 4.877-7.986 8.513-13.709 10.106-5.723-1.593-10.567-5.229-13.709-10.106-2.516-3.812-3.966-8.37-3.966-13.247v-25.726z" fill="#3f5d77"/><path d="m229.687 347.479h-38.596c-4.972 0-9.003 4.031-9.003 9.003 0 4.972 4.031 9.003 9.003 9.003h38.596c4.972 0 9.003-4.031 9.003-9.003 0-4.972-4.031-9.003-9.003-9.003z" fill="#334353"/><path d="m282.336 162.768h-114.83c-4.879 0-8.834-3.955-8.834-8.834 0-4.879 3.955-8.834 8.834-8.834h114.83c4.879 0 8.834 3.955 8.834 8.834.001 4.879-3.955 8.834-8.834 8.834z" fill="#3f6c8e"/><g><path d="m338.738 340.944h-256.697c-8.451 0-15.302-6.851-15.302-15.302v-147.572c0-8.451 6.851-15.302 15.302-15.302h256.697c8.451 0 15.302 6.851 15.302 15.302v147.572c0 8.451-6.851 15.302-15.302 15.302z" fill="#22a8b9"/><g><path d="m271.253 192.155c-4.698 4.729-7.99 10.347-9.857 16.286-.321 1.056-.612 2.143-.857 3.214 0 .061-.016.138-.031.184-1.055 4.842-1.221 9.846-.475 14.738.374 2.455 3.507 3.298 5.088 1.382l15.072-18.263c5.755-6.581 15.459-7.378 21.352-1.485l5.219 5.189 5.158 5.158c2.067 2.035 3.306 4.562 3.781 7.209.888 4.959-.903 10.393-5.204 14.174l-10.148 8.434-8.057 6.683c-1.916 1.589-1.056 4.719 1.406 5.088 12.171 1.821 25.024-1.953 34.386-11.342 4.929-4.959 8.296-10.898 10.102-17.174 2.694-9.367 1.96-19.501-2.296-28.408l5.725-5.235 86.45-79.256c3.705-3.399 6.23-7.455 7.393-11.342.077-.23.138-.444.214-.673.046-.169.092-.337.123-.49.98-4.194.29-8.097-2.312-10.699l-4.424-4.424-4.821-4.791c-5.25-5.25-15.796-2.632-23.173 5.479l-84.247 92.419c-14.908-7.04-33.246-4.407-45.567 7.945zm134.083-91.991c3.995-3.077 9.751-2.771 13.424.872.061.061.122.122.169.199.903.934 1.576 1.975 2.035 3.077 1.47 3.489.919 7.623-1.622 10.623-3.704 4.347-10.76 4.699-14.877.765l-.061-.061c-4.102-3.98-4.163-10.531-.123-14.571.336-.338.688-.628 1.055-.904z" fill="#c1b7d3"/><path d="m316.82 184.21 84.246-92.419c7.377-8.112 17.923-10.73 23.173-5.479l4.821 4.791-10.132 10.132c-.046-.076-.108-.137-.169-.199-3.673-3.643-9.429-3.949-13.424-.872-1.343 1.007-2.482 2.219-3.434 5.154-1.177 3.629-.197 7.623 2.5 10.321l.061.061-97.7 97.7-5.219-5.189c-5.893-5.893-15.597-5.097-21.352 1.485l-15.072 18.263c-1.581 1.916-4.714 1.074-5.088-1.382-.746-4.892-.58-9.896.475-14.738.015-.046.031-.123.031-.184.244-1.071.535-2.158.857-3.214 1.868-5.939 5.159-11.557 9.857-16.286 12.323-12.352 30.661-14.985 45.569-7.945z" fill="#decee5"/><g fill="#fff"><path d="m387.176 128.463c.979 1.733.729 3.971-.749 5.444l-52.409 52.224c-1.775 1.769-4.648 1.764-6.415-.011-1.775-1.783-1.764-4.648.011-6.415l52.409-52.224c1.775-1.769 4.648-1.764 6.415.011.296.296.542.624.738.971z"/><path d="m294.516 189.689c.143.247.262.512.353.794.702 2.158-.479 4.476-2.637 5.177-8.269 2.687-15.283 8.248-19.748 15.656-1.172 1.944-3.697 2.569-5.64 1.398-1.945-1.176-2.57-3.698-1.398-5.64 5.487-9.102 14.097-15.931 24.247-19.229 1.875-.609 3.873.204 4.823 1.844z"/></g></g><g><g><g><g><path d="m221.863 302.262c-.896 0-1.792-.342-2.475-1.025-1.367-1.367-1.367-3.583 0-4.949l4.243-4.242c1.367-1.366 3.583-1.366 4.95 0 1.367 1.367 1.367 3.583 0 4.949l-4.243 4.242c-.683.683-1.579 1.025-2.475 1.025z" fill="#83d5ef"/></g><g><path d="m240.142 283.983c-.896 0-1.792-.342-2.475-1.025-1.367-1.366-1.367-3.583 0-4.949l9.357-9.357c1.367-1.367 3.583-1.367 4.95 0 1.367 1.366 1.367 3.583 0 4.949l-9.357 9.357c-.684.684-1.58 1.025-2.475 1.025zm23.393-23.393c-.896 0-1.792-.342-2.475-1.025-1.367-1.366-1.367-3.583 0-4.949l9.357-9.356c1.367-1.367 3.583-1.366 4.95 0s1.367 3.583 0 4.949l-9.357 9.356c-.684.683-1.58 1.025-2.475 1.025z" fill="#83d5ef"/></g><g><path d="m286.928 237.197c-.896 0-1.792-.342-2.475-1.025-1.367-1.367-1.367-3.583 0-4.949l4.243-4.242c1.367-1.367 3.583-1.366 4.95 0 1.367 1.367 1.367 3.583 0 4.949l-4.243 4.242c-.684.683-1.58 1.025-2.475 1.025z" fill="#83d5ef"/></g></g><g><path d="m211.825 292.224c-.896 0-1.792-.342-2.475-1.025l-8.485-8.485c-1.367-1.366-1.367-3.583 0-4.949 1.367-1.367 3.583-1.367 4.95 0l8.485 8.485c1.367 1.366 1.367 3.583 0 4.949-.684.683-1.58 1.025-2.475 1.025zm-21.214-21.213c-.896 0-1.792-.342-2.475-1.025l-8.485-8.485c-1.367-1.366-1.367-3.583 0-4.949s3.583-1.366 4.95 0l8.485 8.485c1.367 1.366 1.367 3.583 0 4.949-.683.683-1.579 1.025-2.475 1.025zm-21.213-21.214c-.896 0-1.792-.342-2.475-1.025l-8.485-8.485c-1.367-1.366-1.367-3.583 0-4.949 1.367-1.367 3.583-1.367 4.95 0l8.485 8.485c1.367 1.366 1.367 3.583 0 4.949-.683.683-1.579 1.025-2.475 1.025zm-21.213-21.213c-.896 0-1.792-.342-2.475-1.025l-8.485-8.485c-1.367-1.366-1.367-3.583 0-4.949 1.367-1.367 3.583-1.367 4.95 0l8.485 8.485c1.367 1.366 1.367 3.583 0 4.949-.683.683-1.579 1.025-2.475 1.025z" fill="#83d5ef"/></g><g><g><path d="m127.415 213.812c-1.933 0-3.5-1.567-3.5-3.5v-6c0-1.933 1.567-3.5 3.5-3.5s3.5 1.567 3.5 3.5v6c0 1.933-1.567 3.5-3.5 3.5z" fill="#83d5ef"/></g><g><path d="m127.415 277.235c-1.933 0-3.5-1.567-3.5-3.5v-12.685c0-1.933 1.567-3.5 3.5-3.5s3.5 1.567 3.5 3.5v12.685c0 1.933-1.567 3.5-3.5 3.5zm0-31.711c-1.933 0-3.5-1.567-3.5-3.5v-12.684c0-1.933 1.567-3.5 3.5-3.5s3.5 1.567 3.5 3.5v12.685c0 1.932-1.567 3.499-3.5 3.499z" fill="#83d5ef"/></g><g><path d="m127.415 302.262c-1.933 0-3.5-1.567-3.5-3.5v-6c0-1.933 1.567-3.5 3.5-3.5s3.5 1.567 3.5 3.5v6c0 1.932-1.567 3.5-3.5 3.5z" fill="#83d5ef"/></g></g></g><g><g><path d="m305.37 229.46c0 7.84-6.36 14.19-14.2 14.19s-14.2-6.35-14.2-14.19c0-.86.08-1.71.23-2.53 1.19-6.64 6.99-11.67 13.97-11.67s12.78 5.03 13.97 11.67c.15.82.23 1.67.23 2.53z" fill="#cde6f6"/><path d="m305.14 226.93c-1.2 6.63-7 11.65-13.97 11.65s-12.77-5.02-13.97-11.65c1.19-6.64 6.99-11.67 13.97-11.67s12.78 5.03 13.97 11.67z" fill="#fff"/></g><g><path d="m236.063 298.767c0 7.84-6.36 14.19-14.2 14.19s-14.2-6.35-14.2-14.19c0-.86.08-1.71.23-2.53 1.19-6.64 6.99-11.67 13.97-11.67s12.78 5.03 13.97 11.67c.15.82.23 1.67.23 2.53z" fill="#cde6f6"/><path d="m235.833 296.237c-1.2 6.63-7 11.65-13.97 11.65s-12.77-5.02-13.97-11.65c1.19-6.64 6.99-11.67 13.97-11.67s12.78 5.03 13.97 11.67z" fill="#fff"/></g><g><path d="m141.615 204.318c0 7.84-6.36 14.19-14.2 14.19s-14.2-6.35-14.2-14.19c0-.86.08-1.71.23-2.53 1.19-6.64 6.99-11.67 13.97-11.67s12.78 5.03 13.97 11.67c.15.82.23 1.67.23 2.53z" fill="#cde6f6"/><path d="m141.385 201.788c-1.2 6.63-7 11.65-13.97 11.65s-12.77-5.02-13.97-11.65c1.19-6.64 6.99-11.67 13.97-11.67s12.78 5.03 13.97 11.67z" fill="#fff"/></g><g><path d="m141.615 298.767c0 7.84-6.36 14.19-14.2 14.19s-14.2-6.35-14.2-14.19c0-.86.08-1.71.23-2.53 1.19-6.64 6.99-11.67 13.97-11.67s12.78 5.03 13.97 11.67c.15.82.23 1.67.23 2.53z" fill="#cde6f6"/><path d="m141.385 296.237c-1.2 6.63-7 11.65-13.97 11.65s-12.77-5.02-13.97-11.65c1.19-6.64 6.99-11.67 13.97-11.67s12.78 5.03 13.97 11.67z" fill="#fff"/></g></g></g></g></g></g></svg>