<svg id="Capa_1" enable-background="new 0 0 512 512" height="512" viewBox="0 0 512 512" width="512" xmlns="http://www.w3.org/2000/svg"><g><g><g><g><path d="m346.18 442c30.246.097 54.82 24.732 54.82 55 0 8.284-6.716 15-15 15h-260c-8.284 0-15-6.716-15-15 0-30.268 24.574-54.903 54.82-55l23.846-60h132.667z" fill="#07485e"/></g><path d="m401 497c0-30.268-24.574-54.903-54.82-55l-23.847-60h-66.333v130h130c8.284 0 15-6.716 15-15z" fill="#05303d"/><path d="m466 0h-420c-24.813 0-45 20.187-45 45v310c0 24.813 20.187 45 45 45h420c24.813 0 45-20.187 45-45v-310c0-24.813-20.187-45-45-45z" fill="#09607d"/><path d="m466 400c24.813 0 45-20.187 45-45v-310c0-24.813-20.187-45-45-45h-210v400z" fill="#07485e"/><path d="m46 30h420c8.271 0 15 6.729 15 15v265h-450v-265c0-8.271 6.729-15 15-15z" fill="#bcfbff"/><path d="m466 30h-210v280h225v-265c0-8.271-6.729-15-15-15z" fill="#acceff"/></g></g><g><path d="m325.925 280h-139.85c-15.736 0-30.07-7.992-38.344-21.378-8.272-13.386-9.011-29.78-1.973-43.854l69.926-139.851c7.684-15.369 23.132-24.917 40.316-24.917s32.632 9.548 40.316 24.917l69.925 139.851c7.038 14.074 6.3 30.469-1.973 43.854-8.273 13.386-22.607 21.378-38.343 21.378z" fill="#fff16b"/><path d="m325.925 280c15.736 0 30.07-7.992 38.344-21.378 8.272-13.386 9.011-29.78 1.973-43.854l-69.926-139.851c-7.684-15.369-23.132-24.917-40.316-24.917v230z" fill="#ffc178"/><path d="m256 80c-5.834 0-10.874 3.115-13.482 8.333l-69.927 139.851c-3.392 6.785-.668 12.517.66 14.667 1.329 2.149 5.238 7.149 12.824 7.149h139.85c7.586 0 11.495-5 12.824-7.149 1.328-2.15 4.052-7.882.66-14.667l-69.926-139.851c-2.609-5.218-7.649-8.333-13.483-8.333z" fill="#ff5c5c"/><path d="m325.925 250c7.586 0 11.495-5 12.824-7.149 1.328-2.15 4.052-7.882.66-14.667l-69.926-139.851c-2.609-5.218-7.649-8.333-13.483-8.333v170z" fill="#d01273"/><g><path d="m266 220c0 5.523-4.477 10-10 10s-10-4.477-10-10 4.477-10 10-10 10 4.477 10 10z" fill="#f9f9f9"/><path d="m256 230c5.523 0 10-4.477 10-10s-4.477-10-10-10z" fill="#e2dff4"/><g><g><g><path d="m256.094 189.286c-5.522 0-10-4.478-10-10v-64.286c0-5.522 4.478-10 10-10s10 4.478 10 10v64.286c0 5.523-4.478 10-10 10z" fill="#f9f9f9"/></g></g></g><path d="m256 189.281c.031 0 .062.005.094.005 5.522 0 10-4.478 10-10v-64.286c0-5.522-4.478-10-10-10-.032 0-.062.004-.094.005z" fill="#e2dff4"/></g></g></g></svg>