<svg id="Capa_1" enable-background="new 0 0 512 512" height="512" viewBox="0 0 512 512" width="512" xmlns="http://www.w3.org/2000/svg"><g><path d="m512 256c0 141.38-114.62 256-256 256-19.45 0-38.4-2.17-56.61-6.28-29.95-6.76-32.67-79.46-57.63-95.7-55.38-36.05-89.14-28.17-103.76-94.78-.76-3.48-33.5-11.09-34.12-14.62-2.55-14.49-3.88-29.4-3.88-44.62 0-141.38 114.62-256 256-256 75.5 0 143.38 32.69 190.24 84.69 4.47 4.96 8.75 10.1 12.82 15.41 33.2 43.17 52.94 97.23 52.94 155.9z" fill="#6daef7"/><path d="m459.06 100.1-93.25 68.25-11.81-16.14 92.24-67.52c4.47 4.96 8.75 10.1 12.82 15.41z" fill="#5892e6"/><path d="m217.982 436.851c-99.722 0-180.851-81.129-180.851-180.851s81.129-180.851 180.851-180.851 180.851 81.129 180.851 180.851-81.129 180.851-180.851 180.851zm0-341.702c-88.693 0-160.851 72.158-160.851 160.851s72.158 160.851 160.851 160.851c88.694 0 160.852-72.158 160.852-160.851s-72.158-160.851-160.852-160.851z" fill="#5892e6"/><g><path d="m202.986 253.309-.933 6.998h-104.228c-8.42 0-12.226-10.532-5.752-15.915l36.691-30.506h59.1l36.691 30.506c1.513 1.258 2.465 2.797 2.927 4.417 1.517 5.313-18.044 4.5-24.496 4.5z" fill="#d4daf8"/><path d="m252.129 225.783h-187.629c-19.11 0-34.601-15.491-34.601-34.601v-145.641c0-19.11 15.491-34.601 34.601-34.601h187.629c19.11 0 34.601 15.491 34.601 34.601v145.64c0 19.11-15.491 34.602-34.601 34.602z" fill="#e9eeff"/><path d="m80.595 225.781h-16.094c-19.108 0-34.602-15.494-34.602-34.602v-145.638c0-19.114 15.494-34.602 34.602-34.602h16.094c-19.108 0-34.602 15.489-34.602 34.602v145.638c0 19.108 15.494 34.602 34.602 34.602z" fill="#d4daf8"/><path d="m276.207 45.544v107.559c0 15.42-12.5 27.92-27.92 27.92h-179.947c-15.42 0-27.92-12.5-27.92-27.92v-107.559c0-13.299 10.781-24.08 24.08-24.08h187.627c13.299 0 24.08 10.781 24.08 24.08z" fill="#50405a"/><path d="m85.134 181.022h-16.793c-15.42 0-27.921-12.5-27.921-27.921v-107.557c0-13.3 10.78-24.08 24.08-24.08h16.793c-13.3 0-24.08 10.78-24.08 24.08v107.558c0 15.42 12.501 27.92 27.921 27.92z" fill="#362a40"/><circle cx="158.315" cy="200.952" fill="#50405a" r="8.398"/><path d="m232.677 248.633c-1.773-1.726-4.193-2.789-6.866-2.789h-134.99c-2.673 0-5.093 1.063-6.866 2.789-1.847 1.794-2.988 4.298-2.988 7.066 0 2.72 1.105 5.188 2.888 6.971 1.783 1.784 4.246 2.888 6.966 2.888h134.989c2.72 0 5.182-1.105 6.966-2.888s2.888-4.251 2.888-6.971c.001-2.768-1.141-5.272-2.987-7.066z" fill="#e9eeff"/></g><g><path d="m209.91 335.22v145.64c0 9.75-4.03 18.56-10.52 24.86-29.95-6.76-57.91-18.78-82.87-35.02-24.736-16.102 2.166-65.186-15.666-88.615-22.09-29.024-86.804-34.087-94.894-70.945-.76-3.48-1.46-6.99-2.08-10.52h171.43c19.11 0 34.6 15.49 34.6 34.6z" fill="#e9eeff"/><path d="m199.39 335.22v107.56c0 15.42-12.5 27.92-27.92 27.92h-54.95c-55.38-36.05-95.94-92.95-110.56-159.56h169.35c13.3 0 24.08 10.78 24.08 24.08z" fill="#50405a"/></g><g><path d="m428.256 472.203-.933 6.998h-104.228c-8.42 0-12.226-10.532-5.752-15.915l36.691-30.506h59.1l36.691 30.506c1.513 1.258 2.465 2.797 2.927 4.417 1.517 5.314-18.044 4.5-24.496 4.5z" fill="#d4daf8"/><path d="m477.399 444.677h-187.629c-19.11 0-34.601-15.491-34.601-34.601v-145.64c0-19.11 15.491-34.601 34.601-34.601h187.629c19.11 0 34.601 15.491 34.601 34.601v145.64c0 19.11-15.491 34.601-34.601 34.601z" fill="#e9eeff"/><path d="m305.864 444.676h-16.094c-19.108 0-34.602-15.494-34.602-34.602v-145.639c0-19.114 15.494-34.602 34.602-34.602h16.094c-19.108 0-34.602 15.489-34.602 34.602v145.638c0 19.109 15.494 34.603 34.602 34.603z" fill="#d4daf8"/><path d="m501.477 264.438v107.559c0 15.42-12.5 27.92-27.92 27.92h-179.947c-15.42 0-27.92-12.5-27.92-27.92v-107.559c0-13.299 10.781-24.08 24.08-24.08h187.627c13.299 0 24.08 10.781 24.08 24.08z" fill="#50405a"/><path d="m310.404 399.917h-16.794c-15.42 0-27.921-12.5-27.921-27.921v-107.558c0-13.3 10.78-24.08 24.08-24.08h16.793c-13.3 0-24.08 10.78-24.08 24.08v107.558c.001 15.42 12.502 27.921 27.922 27.921z" fill="#362a40"/><circle cx="383.584" cy="419.847" fill="#50405a" r="8.398"/><path d="m457.946 467.527c-1.773-1.726-4.193-2.789-6.866-2.789h-134.989c-2.673 0-5.093 1.063-6.866 2.789-1.847 1.794-2.988 4.298-2.988 7.065 0 2.72 1.105 5.188 2.888 6.971 1.783 1.784 4.246 2.888 6.966 2.888h134.989c2.72 0 5.182-1.105 6.966-2.888s2.888-4.251 2.888-6.971c0-2.767-1.141-5.271-2.988-7.065z" fill="#e9eeff"/></g><circle cx="359.904" cy="160.28" fill="#6978d8" r="30.594"/></g></svg>