<?xml version="1.0" encoding="iso-8859-1"?>
<!-- Generator: Adobe Illustrator 19.0.0, SVG Export Plug-In . SVG Version: 6.00 Build 0)  -->
<svg version="1.1" id="Capa_1" xmlns="http://www.w3.org/2000/svg" xmlns:xlink="http://www.w3.org/1999/xlink" x="0px" y="0px"
	 viewBox="0 0 512 512" style="enable-background:new 0 0 512 512;" xml:space="preserve">
<polygon style="fill:#9ABADB;" points="332.663,473.644 332.663,413.596 235.984,393.58 256,473.644 "/>
<g>
	<polygon style="fill:#D1E8FF;" points="179.337,473.644 256,473.644 256,393.58 179.337,413.596 	"/>
	<polygon style="fill:#D1E8FF;" points="512,323.524 235.984,303.508 256,413.596 512,413.596 	"/>
</g>
<polygon style="fill:#F5F5FF;" points="0,323.524 0,413.596 256,413.596 256,303.508 "/>
<polygon style="fill:#D1E8FF;" points="377.699,458.644 256,458.644 245.992,473.644 256,488.644 377.699,488.644 "/>
<rect x="134.3" y="458.64" style="fill:#F5F5FF;" width="121.7" height="30"/>
<polygon style="fill:#294B6E;" points="512,23.356 256,23.356 235.984,173.44 256,323.524 512,323.524 "/>
<rect y="23.356" style="fill:#6283A3;" width="256" height="300.17"/>
<path style="fill:#00C7FF;" d="M256,83.404l-20.016,135.072L256,353.548c74.479,0,135.072-60.593,135.072-135.072
	S330.479,83.404,256,83.404z"/>
<path style="fill:#04F6FF;" d="M120.928,218.476c0,74.479,60.593,135.072,135.072,135.072V83.404
	C181.521,83.404,120.928,143.997,120.928,218.476z"/>
<path style="fill:#D1E8FF;" d="M347.018,233.476v-30h-26.814c-1.659-7.1-4.459-13.762-8.211-19.78l18.973-18.973l-21.213-21.213
	l-18.973,18.973c-6.018-3.752-12.68-6.553-19.78-8.211v-26.813h-15l-10.008,40.375L256,182.53c19.82,0,35.945,16.125,35.945,35.946
	S275.82,254.422,256,254.422l-10.008,13.911L256,309.493h15V282.68c7.1-1.659,13.763-4.46,19.78-8.211l18.973,18.973l21.213-21.213
	l-18.973-18.973c3.751-6.017,6.552-12.68,8.211-19.78L347.018,233.476L347.018,233.476z"/>
<path style="fill:#F5F5FF;" d="M220.055,218.476c0-19.821,16.125-35.946,35.945-35.946v-55.072h-15v26.813
	c-7.1,1.659-13.763,4.46-19.78,8.211l-18.973-18.973l-21.213,21.213l18.973,18.973c-3.751,6.017-6.552,12.68-8.211,19.78h-26.814v30
	h26.814c1.659,7.1,4.459,13.762,8.211,19.78l-18.973,18.973l21.213,21.213l18.973-18.973c6.018,3.752,12.68,6.553,19.78,8.211
	v26.813h15v-55.071C236.18,254.422,220.055,238.297,220.055,218.476z"/>
<g>
</g>
<g>
</g>
<g>
</g>
<g>
</g>
<g>
</g>
<g>
</g>
<g>
</g>
<g>
</g>
<g>
</g>
<g>
</g>
<g>
</g>
<g>
</g>
<g>
</g>
<g>
</g>
<g>
</g>
</svg>
