<svg id="Capa_1" enable-background="new 0 0 512 512" height="512" viewBox="0 0 512 512" width="512" xmlns="http://www.w3.org/2000/svg"><g><g><path d="m321.283 395.447h-130.566l-28.376 72.846h187.318z" fill="#4981f8"/></g><g><path d="m491.187 395.447h-470.374c-11.495 0-20.813-9.318-20.813-20.813v-343.414c0-11.495 9.318-20.813 20.813-20.813h470.374c11.495 0 20.813 9.318 20.813 20.813v343.415c0 11.494-9.318 20.812-20.813 20.812z" fill="#80b6fc"/></g><g><path d="m491.187 10.407h-28.715c11.495 0 20.813 9.318 20.813 20.813v343.415c0 11.495-9.318 20.813-20.813 20.813h28.715c11.495 0 20.813-9.318 20.813-20.813v-343.415c0-11.495-9.318-20.813-20.813-20.813z" fill="#62a4fb"/></g><g><path d="m478.694 52.034v270.567c0 4.595-3.729 8.324-8.324 8.324h-428.74l-8.324-71.804v-33.79l19.007-38.014-19.007-38.014v-33.79l8.324-71.804h428.74c4.595.002 8.324 3.731 8.324 8.325z" fill="#d3effd"/></g><g><path d="m233.001 194.817h-66.393c-4.143 0-7.5-3.357-7.5-7.5s3.357-7.5 7.5-7.5h66.393c4.143 0 7.5 3.357 7.5 7.5s-3.357 7.5-7.5 7.5z" fill="#88f2a9"/></g><g><path d="m191.375 131.293h-66.393c-4.143 0-7.5-3.357-7.5-7.5s3.357-7.5 7.5-7.5h66.393c4.143 0 7.5 3.357 7.5 7.5s-3.357 7.5-7.5 7.5z" fill="#88f2a9"/></g><g><path d="m191.375 258.341h-66.393c-4.143 0-7.5-3.357-7.5-7.5s3.357-7.5 7.5-7.5h66.393c4.143 0 7.5 3.357 7.5 7.5s-3.357 7.5-7.5 7.5z" fill="#88f2a9"/></g><g><path d="m90.283 285.704 24.732 12.955c3.92 2.053 8.719 1.321 11.848-1.808l15.972-15.972c3.129-3.129 3.861-7.928 1.808-11.848l-12.955-24.732c-1.51-2.883-1.506-6.3-.083-9.227 1.889-3.883 3.554-7.895 4.979-12.018 1.063-3.073 3.476-5.489 6.58-6.459l26.648-8.327c4.223-1.32 7.099-5.231 7.099-9.656v-22.588c0-4.425-2.876-8.336-7.099-9.656l-26.648-8.327c-3.104-.97-5.517-3.385-6.58-6.459-1.426-4.124-3.09-8.135-4.979-12.018-1.424-2.927-1.428-6.344.083-9.227l12.955-24.732c2.053-3.92 1.321-8.719-1.808-11.848l-15.972-15.972c-3.129-3.129-7.928-3.861-11.848-1.808l-24.732 12.953c-2.883 1.51-6.3 1.506-9.227.083-3.858-1.876-7.842-3.532-11.938-4.951-3.159-1.095-5.53-3.747-6.367-6.984l-6.674-25.789c-1.155-4.464-5.183-7.582-9.794-7.582h-4.656c-4.598 0-8.325 3.727-8.325 8.325v63.48c39.593 0 71.805 32.212 71.805 71.805s-32.211 71.805-71.805 71.805v63.48c0 4.598 3.727 8.325 8.325 8.325h4.656c4.611 0 8.639-3.118 9.794-7.582l6.674-25.788c.838-3.237 3.208-5.889 6.367-6.984 4.095-1.419 8.08-3.075 11.938-4.951 2.926-1.425 6.343-1.428 9.227.082z" fill="#9facba"/></g><g><path d="m71.315 187.317c0-20.995-17.02-38.014-38.014-38.014v76.029c20.995-.001 38.014-17.02 38.014-38.015z" fill="#9facba"/></g><g><path d="m470.374 43.707h-22.006c4.59 0 8.325 3.735 8.325 8.325v270.569c0 4.59-3.735 8.325-8.325 8.325h22.006c4.59 0 8.325-3.735 8.325-8.325v-270.568c0-4.591-3.735-8.326-8.325-8.326z" fill="#b2e5fb"/></g><g><path d="m370.576 501.594h-229.152c-5.69 0-10.302-4.612-10.302-10.302v-12.697c0-5.69 4.612-10.302 10.302-10.302h229.152c5.69 0 10.302 4.612 10.302 10.302v12.697c0 5.689-4.612 10.302-10.302 10.302z" fill="#80b6fc"/></g><g><path d="m370.576 501.594h-20.918v-33.301h20.918c5.69 0 10.302 4.612 10.302 10.302v12.697c0 5.689-4.612 10.302-10.302 10.302z" fill="#62a4fb"/></g><g><circle cx="239.35" cy="187.317" fill="#f7e365" r="16.65"/></g><g><circle cx="197.724" cy="123.793" fill="#f7e365" r="16.65"/></g><g><circle cx="197.724" cy="250.841" fill="#f7e365" r="16.65"/></g><g><g><path d="m346.536 84.508h-57.235c-4.143 0-7.5-3.357-7.5-7.5s3.357-7.5 7.5-7.5h57.235c4.143 0 7.5 3.357 7.5 7.5s-3.357 7.5-7.5 7.5z" fill="#e279b3"/></g><g><path d="m322.602 117.809h-33.301c-4.143 0-7.5-3.357-7.5-7.5s3.357-7.5 7.5-7.5h33.301c4.143 0 7.5 3.357 7.5 7.5s-3.358 7.5-7.5 7.5z" fill="#75cff9"/></g><g><path d="m445.398 117.809h-89.496c-4.143 0-7.5-3.357-7.5-7.5s3.357-7.5 7.5-7.5h89.496c4.143 0 7.5 3.357 7.5 7.5s-3.357 7.5-7.5 7.5z" fill="#f7e365"/></g><g><path d="m406.895 151.109h-15.61c-4.143 0-7.5-3.357-7.5-7.5s3.357-7.5 7.5-7.5h15.61c4.143 0 7.5 3.357 7.5 7.5s-3.358 7.5-7.5 7.5z" fill="#75cff9"/></g><g><path d="m357.983 151.109h-68.683c-4.143 0-7.5-3.357-7.5-7.5s3.357-7.5 7.5-7.5h68.683c4.143 0 7.5 3.357 7.5 7.5s-3.357 7.5-7.5 7.5z" fill="#75cff9"/></g></g><g><g><path d="m346.536 184.41h-57.235c-4.143 0-7.5-3.357-7.5-7.5s3.357-7.5 7.5-7.5h57.235c4.143 0 7.5 3.357 7.5 7.5s-3.357 7.5-7.5 7.5z" fill="#e279b3"/></g><g><path d="m322.602 217.711h-33.301c-4.143 0-7.5-3.357-7.5-7.5s3.357-7.5 7.5-7.5h33.301c4.143 0 7.5 3.357 7.5 7.5s-3.358 7.5-7.5 7.5z" fill="#75cff9"/></g><g><path d="m445.398 217.711h-89.496c-4.143 0-7.5-3.357-7.5-7.5s3.357-7.5 7.5-7.5h89.496c4.143 0 7.5 3.357 7.5 7.5s-3.357 7.5-7.5 7.5z" fill="#f7e365"/></g><g><path d="m406.895 251.012h-15.61c-4.143 0-7.5-3.357-7.5-7.5s3.357-7.5 7.5-7.5h15.61c4.143 0 7.5 3.357 7.5 7.5s-3.358 7.5-7.5 7.5z" fill="#75cff9"/></g><g><path d="m357.983 251.012h-68.683c-4.143 0-7.5-3.357-7.5-7.5s3.357-7.5 7.5-7.5h68.683c4.143 0 7.5 3.357 7.5 7.5s-3.357 7.5-7.5 7.5z" fill="#75cff9"/></g></g></g></svg>