<svg id="flat-export" height="512" viewBox="0 0 512 512" width="512" xmlns="http://www.w3.org/2000/svg"><path d="m360 96v91.17993a39.95423 39.95423 0 0 1 -7.45 23.25l-9.29 13.01-23.26 32.56007-8 48h-96l-8-48-23.26-32.56006-9.29-13.01a39.95387 39.95387 0 0 1 -7.45-23.25v-43.17994l40-16v56l10.56 14.08008 13.44 17.91992h64l13.43994-17.91992 10.56006-14.08008v-96l16-8z" fill="#ffceb6"/><path d="m343.26 223.44-23.26 32.56-8 48h-96l-8-48-23.26-32.56 33.82-25.36 13.44 17.92h64l13.44-17.92z" fill="#ffa100"/><path d="m288 464v24h64v-8l-32-24z" fill="#d1e4ff"/><path d="m208 456 32 8 24-120 24 120 32-8-8-152h-96z" fill="#718799"/><path d="m208 456-32 24v8h64v-24z" fill="#d1e4ff"/><path d="m288.00028 247.99972a8.00013 8.00013 0 0 0 -.00028-11.31365l-18.3433-18.3433a8.00182 8.00182 0 0 0 -11.31348 0l-18.34322 18.3433a8.00013 8.00013 0 0 0 -.00024 11.31365 8.00013 8.00013 0 0 0 11.3142.00018l4.68604-4.68618v28.68628h16v-28.68628l4.68607 4.68619a8.00013 8.00013 0 0 0 11.3142-.00018z" fill="#f78e00"/><path d="m122.578 174.492 21.044 9.508 29.705-11.898 8.904-20.802 155.383-57.438 23.776 16.33 29.706-11.898 8.904-20.802-2.974-7.426-29.706 11.898-13.376-11.879 1.478-17.827 29.706-11.898-2.975-7.427-20.802-8.904-29.706 11.898-5.929 28.229-155.383 57.438-20.801-8.904-29.706 11.898-7.826 27.412z" fill="#ffc431"/><path d="m138.577 140.345h16v16h-16z" fill="#ffa100" transform="matrix(.928 -.372 .372 .928 -44.65 65.138)"/><path d="m264 224a16 16 0 0 1 -16-16v-8l8-8h24v16a16 16 0 0 1 -16 16z" fill="#ffceb6"/><path d="m280 192 4.68629-4.68629a11.31372 11.31372 0 0 0 3.31371-8 11.31369 11.31369 0 0 0 -11.3137-11.31371h-12.6863a16 16 0 0 0 -16 16v16l8-8z" fill="#c47220"/></svg>