<svg id="Capa_1" enable-background="new 0 0 512 512" height="512" viewBox="0 0 512 512" width="512" xmlns="http://www.w3.org/2000/svg"><g><g><circle cx="186.668" cy="214.705" fill="#f9efda" r="164.211"/></g><g><path d="m275.976 76.865c19.029 29.259 28.927 64.784 25.986 102.269-7.094 90.414-86.139 157.958-176.552 150.864-28.246-2.216-54.26-11.455-76.464-25.869 26.868 41.314 71.95 70.131 124.878 74.283 90.414 7.094 169.459-60.451 176.552-150.864 4.878-62.166-25.532-118.959-74.4-150.683z" fill="#f4ddb1"/></g><g><path d="m186.668 50.494v164.211h164.212c0-90.691-73.52-164.211-164.212-164.211z" fill="#e4989d"/></g><g><path d="m186.667 232.879c-4.229 0-7.656-3.427-7.656-7.656v-84.059c0-4.229 3.427-7.656 7.656-7.656 4.228 0 7.656 3.427 7.656 7.656v84.059c0 4.229-3.427 7.656-7.656 7.656z" fill="#665e66"/></g><g><path d="m153.582 146.659 30.626-30.626c1.359-1.359 3.562-1.359 4.921 0l30.626 30.626c2.192 2.192.64 5.94-2.46 5.94h-61.252c-3.101 0-4.653-3.748-2.461-5.94z" fill="#a298a5"/></g><g><path d="m219.755 146.659-30.626-30.626c-1.359-1.359-3.562-1.359-4.921 0l-10.371 10.371 26.195 26.195h17.262c3.1 0 4.653-3.748 2.461-5.94z" fill="#8b818e"/></g><g><path d="m286.772 222.361h-84.059c-4.229 0-7.656-3.427-7.656-7.656s3.427-7.656 7.656-7.656h84.059c4.228 0 7.656 3.427 7.656 7.656-.001 4.229-3.428 7.656-7.656 7.656z" fill="#665e66"/></g><g><g><path d="m207.438 214.705c-.143 1.823 5.175 5.661 4.688 7.353-3.407 11.842-14.766 20.06-27.53 19.059-14.587-1.144-25.484-13.897-24.339-28.484s13.897-25.484 28.484-24.339c11.204.879 20.232 8.607 23.297 18.754.925 3.063-4.335 4.275-4.6 7.657z" fill="#756e78"/></g><g><path d="m193.251 189.047c.705 2.751.984 5.661.749 8.651-1.144 14.587-13.897 25.484-28.484 24.34-1.55-.122-3.054-.382-4.511-.753 2.736 10.673 11.993 18.923 23.59 19.833 14.587 1.144 27.339-9.753 28.484-24.34 1.024-13.038-7.576-24.602-19.828-27.731z" fill="#665e66"/></g></g><g><path d="m301.962 179.134c-.967 12.327-3.281 24.225-6.77 35.571h55.688c0-57.745-29.811-108.521-74.876-137.797 19.01 29.251 28.897 64.759 25.958 102.226z" fill="#e28086"/></g><g><path d="m281.278 181.619 30.626 30.626c1.359 1.359 1.359 3.562 0 4.921l-30.626 30.626c-2.192 2.192-5.94.639-5.94-2.46v-61.252c.001-3.101 3.748-4.653 5.94-2.461z" fill="#a298a5"/></g><g><path d="m281.278 181.619 30.626 30.626c1.359 1.359 1.359 3.562 0 4.921l-30.626 30.626c-2.192 2.192-5.94.639-5.94-2.46v-61.252c.001-3.101 3.748-4.653 5.94-2.461z" fill="#a298a5"/></g><g><path d="m281.278 247.792 30.626-30.626c1.359-1.359 1.359-3.562 0-4.921l-10.371-10.371-26.195 26.195v17.262c.001 3.1 3.748 4.652 5.94 2.461z" fill="#8b818e"/></g><g><g><path d="m186.668 401.373c-102.929 0-186.668-83.739-186.668-186.668s83.739-186.668 186.668-186.668 186.668 83.739 186.668 186.668-83.739 186.668-186.668 186.668zm0-328.423c-78.164 0-141.755 63.591-141.755 141.755s63.59 141.755 141.755 141.755 141.755-63.591 141.755-141.755-63.591-141.755-141.755-141.755z" fill="#a298a5"/></g></g><g><g><path d="m307.01 72.131c27.491 32.519 44.094 74.525 44.094 120.342 0 102.929-83.739 186.668-186.668 186.668-45.817 0-87.823-16.602-120.342-44.094 34.268 40.536 85.462 66.325 142.574 66.325 102.929 0 186.668-83.739 186.668-186.668 0-57.111-25.79-108.304-66.326-142.573z" fill="#8b818e"/></g></g><g><path d="m436 373.494h-288.992c-4.089 0-6.518-4.568-4.231-7.958l65.81-97.562c2.087-3.094 5.576-4.949 9.308-4.949h288.992c4.089 0 6.518 4.568 4.231 7.958l-65.81 97.562c-2.087 3.094-5.575 4.949-9.308 4.949z" fill="#ffd064"/></g><g><path d="m317.262 483.963h-288.992c-4.089 0-6.518-4.568-4.231-7.958l65.81-97.562c2.087-3.094 5.576-4.949 9.308-4.949h288.992c4.089 0 6.518 4.568 4.231 7.958l-65.81 97.562c-2.087 3.094-5.576 4.949-9.308 4.949z" fill="#ffd064"/></g><g><path d="m506.888 263.025h-26.558l-51.917 76.966c-2.087 3.094-5.576 4.949-9.309 4.949h-262.434l-13.893 20.595c-2.287 3.39.142 7.958 4.231 7.958h288.992c3.733 0 7.221-1.855 9.309-4.949l65.81-97.562c2.286-3.389-.142-7.957-4.231-7.957z" fill="#ffc250"/></g><g><path d="m388.149 373.494h-26.558l-51.918 76.966c-2.087 3.094-5.576 4.949-9.308 4.949h-262.433l-13.893 20.596c-2.286 3.39.142 7.958 4.231 7.958h288.992c3.733 0 7.221-1.855 9.308-4.949l65.81-97.562c2.287-3.39-.142-7.958-4.231-7.958z" fill="#ffc250"/></g><g fill="#a298a5"><path d="m240.826 393.48c-.025 0-.051 0-.076 0-4.229.041-7.623 3.502-7.582 7.729l.289 29.835-23.588-34.158c-1.903-2.757-5.376-3.954-8.579-2.958-3.198.997-5.377 3.958-5.377 7.309v53.781c0 4.229 3.427 7.656 7.656 7.656 4.228 0 7.656-3.427 7.656-7.656v-29.223l22.412 32.455c2.215 3.196 5.923 4.552 9.442 3.449 3.586-1.12 5.903-4.456 5.903-8.571l-.503-52.067c-.04-4.201-3.459-7.581-7.653-7.581z"/><path d="m138.19 447.317c-3.821.021-7.852.037-11.169.043v-46.224c0-4.229-3.427-7.656-7.656-7.656s-7.656 3.427-7.656 7.656v53.837c0 3.731 2.69 6.919 6.369 7.547.546.093.926.158 6.939.158 2.897 0 7.101-.015 13.259-.049 4.227-.024 7.635-3.47 7.613-7.698-.024-4.229-3.448-7.599-7.699-7.614z"/><path d="m167.038 393.48c-4.228 0-7.656 3.427-7.656 7.656v53.882c0 4.229 3.427 7.656 7.656 7.656s7.656-3.427 7.656-7.656v-53.882c0-4.229-3.427-7.656-7.656-7.656z"/><path d="m296.304 447.362h-14.842v-11.384h13.183c4.229 0 7.656-3.427 7.656-7.656s-3.427-7.656-7.656-7.656h-13.183v-11.385h14.842c4.229 0 7.656-3.427 7.656-7.656s-3.427-7.656-7.656-7.656h-22.497c-4.229 0-7.656 3.427-7.656 7.656v53.39c0 4.229 3.427 7.656 7.656 7.656h22.497c4.229 0 7.656-3.427 7.656-7.656s-3.427-7.653-7.656-7.653z"/></g><path d="m303.646 290.217c-.026-.071-.054-.141-.083-.21-1.375-3.341-4.596-5.498-8.209-5.498-.004 0-.009 0-.013 0-3.617.006-6.838 2.173-8.205 5.521-.023.056-.045.113-.067.169l-20.233 53.123c-1.505 3.951.479 8.374 4.429 9.88 3.848 1.496 8.378-.438 9.88-4.429l3.161-8.301h21.939l3.124 8.279c1.492 3.955 5.911 5.952 9.865 4.459 3.955-1.492 5.952-5.909 4.459-9.865zm-13.508 34.944 5.189-13.624 5.141 13.624z" fill="#e28086"/><path d="m257.438 299.418c4.229 0 7.656-3.427 7.656-7.656 0-4.228-3.427-7.656-7.656-7.656h-21.678c-4.228 0-7.656 3.427-7.656 7.656v53.487c0 4.229 3.427 7.656 7.656 7.656s7.656-3.427 7.656-7.656v-19.594h12.302c4.229 0 7.656-3.427 7.656-7.656s-3.427-7.656-7.656-7.656h-12.302v-10.926h14.022z" fill="#e28086"/><path d="m363.469 311.241c-6.461-2.382-12.488-4.975-14.5-5.854-.972-.845-.988-1.959-.897-2.585.111-.776.689-2.678 3.639-3.567 7.096-2.141 13.756 3.08 13.981 3.261 3.238 2.677 8.033 2.25 10.742-.972 2.72-3.237 2.303-8.066-.934-10.787-.524-.441-13.02-10.739-28.205-6.163-7.785 2.346-13.295 8.497-14.38 16.053-1.02 7.111 2.063 13.953 8.048 17.854 1.972 1.106 7.46 3.427 17.207 7.125 1.674.618 7.086 2.897 6.477 6.311-.461 2.582-3.845 5.368-8.507 5.368-5.1 0-9.999-2.045-13.105-5.472-2.84-3.133-7.68-3.37-10.813-.53-3.132 2.839-3.37 7.681-.53 10.813 6.049 6.673 14.96 10.5 24.449 10.5 11.801 0 21.718-7.565 23.579-17.988 1.407-7.878-2.123-18.155-16.251-23.367z" fill="#e28086"/><path d="m428.309 283.403h-29.757c-4.229 0-7.656 3.427-7.656 7.656s3.427 7.656 7.656 7.656h7.163v46.226c0 4.229 3.427 7.656 7.656 7.656s7.656-3.427 7.656-7.656v-46.226h7.283c4.229 0 7.656-3.427 7.656-7.656s-3.429-7.656-7.657-7.656z" fill="#e28086"/><path d="m235.76 352.905c4.229 0 7.656-3.427 7.656-7.656v-.309h-15.311v.309c-.001 4.229 3.426 7.656 7.655 7.656z" fill="#da4a54"/><g><path d="m103.283 321.74h-49.091c-4.228 0-7.656-3.427-7.656-7.656s3.427-7.656 7.656-7.656h49.091c4.229 0 7.656 3.427 7.656 7.656s-3.428 7.656-7.656 7.656z" fill="#e28086"/></g><g><path d="m133.904 280.385h-31.228c-4.228 0-7.656-3.427-7.656-7.656 0-4.228 3.427-7.656 7.656-7.656h31.228c4.229 0 7.656 3.427 7.656 7.656s-3.427 7.656-7.656 7.656z" fill="#e28086"/></g><g><path d="m72.141 363.095h-60.893c-4.228 0-7.656-3.427-7.656-7.656 0-4.228 3.427-7.656 7.656-7.656h60.894c4.228 0 7.656 3.427 7.656 7.656-.001 4.229-3.428 7.656-7.657 7.656z" fill="#e28086"/></g><path d="m138.276 462.629c4.066-.023 7.364-3.214 7.591-7.219h-34.138c.201 3.54 2.816 6.507 6.349 7.11.546.093.926.158 6.939.158 2.897-.001 7.102-.016 13.259-.049z" fill="#665e66"/><path d="m174.674 455.409h-15.272c.205 4.045 3.54 7.264 7.636 7.264s7.431-3.219 7.636-7.264z" fill="#665e66"/><g fill="#665e66"><path d="m243.08 461.699c2.892-.903 4.934-3.259 5.625-6.29h-17.029l1.962 2.841c2.215 3.196 5.924 4.553 9.442 3.449z"/><path d="m211.206 455.409h-15.272c.205 4.045 3.54 7.264 7.636 7.264 4.097 0 7.431-3.219 7.636-7.264z"/></g><path d="m273.807 462.673h22.497c4.229 0 7.656-3.427 7.656-7.656 0-.073-.009-.143-.011-.215-1.142.385-2.346.607-3.584.607h-34.194c.205 4.045 3.54 7.264 7.636 7.264z" fill="#665e66"/><path d="m413.37 352.596c4.229 0 7.656-3.427 7.656-7.656v-.186c-.631.11-1.27.186-1.922.186h-13.389c0 4.229 3.427 7.656 7.655 7.656z" fill="#da4a54"/><path d="m374.492 344.941h-39.83c5.821 4.899 13.439 7.655 21.479 7.655 7.343 0 13.954-2.931 18.351-7.655z" fill="#da4a54"/><g fill="#da4a54"><path d="m271.265 353.201c3.848 1.496 8.378-.438 9.88-4.429l1.459-3.832h-16.185c-.511 3.475 1.43 6.959 4.846 8.261z"/><path d="m309.37 348.75c1.492 3.955 5.911 5.952 9.865 4.459 3.428-1.293 5.381-4.784 4.869-8.268h-16.172z"/></g></g></svg>