<?xml version="1.0" encoding="iso-8859-1"?>
<!-- Generator: Adobe Illustrator 19.0.0, SVG Export Plug-In . SVG Version: 6.00 Build 0)  -->
<svg version="1.1" id="Capa_1" xmlns="http://www.w3.org/2000/svg" xmlns:xlink="http://www.w3.org/1999/xlink" x="0px" y="0px"
	 viewBox="0 0 512.001 512.001" style="enable-background:new 0 0 512.001 512.001;" xml:space="preserve">
<path style="fill:#E6E9ED;" d="M426.294,62.194L366.298,2.196C364.892,0.79,362.984,0,360.995,0H91.009c-4.142,0-7.5,3.357-7.5,7.5
	v453.475c0,4.142,3.358,7.5,7.5,7.5h329.982c4.142,0,7.5-3.358,7.5-7.5V67.498C428.491,65.509,427.701,63.602,426.294,62.194z"/>
<path style="fill:#ED5565;" d="M222.028,155.001c-0.007,0-0.013,0-0.02,0H151.01c-2.119,0-4.139-0.896-5.561-2.468
	c-1.422-1.571-2.113-3.67-1.902-5.779l6.001-60c0.384-3.834,3.61-6.753,7.463-6.753h59.998c3.901,0,7.15,2.99,7.474,6.877
	l4.953,59.442c0.061,0.385,0.092,0.779,0.092,1.181C229.528,151.643,226.17,155.001,222.028,155.001z"/>
<path style="fill:#515760;" d="M187.01,50c-12.407,0-22.5,10.093-22.5,22.5v15.001c0,4.142,3.358,7.5,7.5,7.5s7.5-3.358,7.5-7.5
	V72.5c0-4.136,3.364-7.5,7.5-7.5s7.5,3.364,7.5,7.5v15.001c0,4.142,3.358,7.5,7.5,7.5s7.5-3.358,7.5-7.5V72.5
	C209.51,60.093,199.417,50,187.01,50z"/>
<path style="fill:#F5F7FA;" d="M366.298,2.196c-0.797-0.797-1.759-1.389-2.802-1.758v57.059c0,4.142,3.358,7.5,7.5,7.5h57.057
	c-0.37-1.043-0.961-2.005-1.758-2.803L366.298,2.196z"/>
<g>
	<path style="fill:#656D78;" d="M360.995,228.493H151.007c-4.142,0-7.5-3.358-7.5-7.5c0-4.143,3.358-7.5,7.5-7.5h209.988
		c4.142,0,7.5,3.357,7.5,7.5C368.495,225.135,365.137,228.493,360.995,228.493z"/>
	<path style="fill:#656D78;" d="M360.995,268.502H151.007c-4.142,0-7.5-3.358-7.5-7.5c0-4.143,3.358-7.5,7.5-7.5h209.988
		c4.142,0,7.5,3.357,7.5,7.5C368.495,265.144,365.137,268.502,360.995,268.502z"/>
	<path style="fill:#656D78;" d="M360.995,308.501H151.007c-4.142,0-7.5-3.358-7.5-7.5c0-4.143,3.358-7.5,7.5-7.5h209.988
		c4.142,0,7.5,3.357,7.5,7.5C368.495,305.143,365.137,308.501,360.995,308.501z"/>
	<path style="fill:#656D78;" d="M241.001,348.501h-89.994c-4.142,0-7.5-3.358-7.5-7.5c0-4.143,3.358-7.5,7.5-7.5h89.994
		c4.142,0,7.5,3.357,7.5,7.5C248.501,345.143,245.143,348.501,241.001,348.501z"/>
</g>
<path style="fill:#DADDE1;" d="M398.051,65c0.281,0.796,0.438,1.638,0.438,2.498v393.477c0,4.142-3.358,7.5-7.5,7.5h30.003
	c4.142,0,7.5-3.358,7.5-7.5V67.498c0-0.86-0.156-1.702-0.438-2.498H398.051z"/>
<path style="fill:#ED5565;" d="M316.007,458.502c-28.949,0-52.5-23.552-52.5-52.5c0-28.949,23.551-52.5,52.5-52.5
	s52.5,23.551,52.5,52.5C368.507,434.95,344.956,458.502,316.007,458.502z"/>
<g>
	<path style="fill:#DA4453;" d="M316.007,458.502c-12.265,0-23.551-4.239-32.498-11.314V504.5c0,0.08,0.009,0.157,0.012,0.236
		c0.005,0.153,0.009,0.306,0.023,0.458c0.01,0.107,0.027,0.213,0.041,0.318c0.018,0.138,0.037,0.274,0.063,0.41
		c0.022,0.114,0.051,0.226,0.078,0.338c0.03,0.125,0.059,0.249,0.096,0.373c0.035,0.117,0.076,0.232,0.117,0.348
		c0.04,0.114,0.079,0.229,0.125,0.342c0.049,0.12,0.104,0.235,0.159,0.353c0.049,0.104,0.096,0.209,0.15,0.312
		c0.065,0.122,0.136,0.24,0.207,0.358c0.055,0.093,0.108,0.186,0.167,0.275c0.083,0.126,0.174,0.246,0.264,0.367
		c0.049,0.064,0.091,0.133,0.142,0.197c0.01,0.013,0.022,0.022,0.032,0.035c0.168,0.208,0.346,0.407,0.535,0.596
		c0.053,0.053,0.111,0.099,0.166,0.15c0.137,0.129,0.277,0.255,0.424,0.373c0.088,0.071,0.179,0.136,0.27,0.202
		c0.123,0.09,0.246,0.178,0.373,0.26c0.096,0.063,0.193,0.12,0.292,0.178c0.133,0.077,0.269,0.15,0.407,0.22
		c0.094,0.047,0.188,0.094,0.285,0.137c0.153,0.069,0.31,0.131,0.468,0.189c0.086,0.032,0.171,0.066,0.258,0.095
		c0.177,0.059,0.359,0.106,0.542,0.152c0.073,0.018,0.145,0.04,0.218,0.056c0.202,0.044,0.408,0.075,0.616,0.102
		c0.058,0.008,0.115,0.021,0.173,0.026c0.245,0.026,0.494,0.039,0.746,0.041c0.019,0,0.038,0.003,0.057,0.003
		c0.008,0,0.015-0.002,0.023-0.002c0.366-0.001,0.723-0.036,1.074-0.088c0.076-0.012,0.15-0.021,0.226-0.035
		c0.357-0.063,0.704-0.15,1.041-0.263c0.062-0.021,0.122-0.045,0.183-0.067c0.359-0.13,0.709-0.279,1.041-0.461
		c0.012-0.007,0.023-0.015,0.035-0.021c0.35-0.193,0.679-0.416,0.991-0.661c0.022-0.017,0.046-0.028,0.068-0.045l20.314-16.252
		l20.313,16.252c0.022,0.017,0.045,0.027,0.067,0.044c0.313,0.245,0.642,0.469,0.992,0.663c0.012,0.006,0.023,0.014,0.035,0.021
		c0.331,0.182,0.682,0.331,1.041,0.461c0.061,0.022,0.121,0.047,0.182,0.067c0.337,0.111,0.685,0.199,1.041,0.263
		c0.075,0.014,0.15,0.023,0.226,0.035c0.351,0.052,0.707,0.087,1.073,0.088c0.008,0,0.016,0.002,0.024,0.002
		c0.017,0,0.034-0.002,0.051-0.003c0.254-0.001,0.505-0.015,0.753-0.041c0.055-0.006,0.109-0.018,0.165-0.024
		c0.21-0.027,0.42-0.06,0.624-0.104c0.071-0.016,0.14-0.037,0.21-0.055c0.186-0.046,0.371-0.095,0.551-0.154
		c0.084-0.027,0.167-0.061,0.25-0.092c0.162-0.06,0.321-0.122,0.477-0.192c0.094-0.042,0.187-0.088,0.279-0.134
		c0.14-0.07,0.278-0.145,0.413-0.224c0.097-0.056,0.193-0.113,0.289-0.175c0.128-0.083,0.253-0.171,0.376-0.262
		c0.09-0.066,0.181-0.13,0.268-0.2c0.147-0.119,0.288-0.246,0.426-0.376c0.054-0.051,0.11-0.096,0.163-0.148
		c0.189-0.188,0.368-0.388,0.536-0.596c0.01-0.013,0.022-0.022,0.032-0.035c0.051-0.063,0.092-0.131,0.141-0.195
		c0.091-0.121,0.182-0.242,0.266-0.369c0.059-0.09,0.111-0.183,0.167-0.274c0.071-0.119,0.143-0.237,0.208-0.36
		c0.054-0.102,0.101-0.206,0.149-0.31c0.055-0.117,0.11-0.233,0.159-0.354c0.046-0.113,0.085-0.228,0.125-0.342
		c0.041-0.115,0.082-0.23,0.117-0.348c0.037-0.124,0.066-0.249,0.096-0.374c0.027-0.111,0.056-0.223,0.078-0.337
		c0.026-0.137,0.044-0.274,0.063-0.411c0.014-0.105,0.031-0.21,0.041-0.317c0.014-0.152,0.018-0.306,0.023-0.459
		c0.003-0.079,0.012-0.156,0.012-0.236l-0.002-57.311C339.559,454.263,328.272,458.502,316.007,458.502z"/>
	<path style="fill:#DA4453;" d="M316.008,428.501c-12.407,0-22.5-10.094-22.5-22.5c0-12.407,10.093-22.5,22.5-22.5
		s22.5,10.093,22.5,22.5C338.508,418.407,328.415,428.501,316.008,428.501z"/>
</g>
<g>
</g>
<g>
</g>
<g>
</g>
<g>
</g>
<g>
</g>
<g>
</g>
<g>
</g>
<g>
</g>
<g>
</g>
<g>
</g>
<g>
</g>
<g>
</g>
<g>
</g>
<g>
</g>
<g>
</g>
</svg>
