<svg id="Capa_1" enable-background="new 0 0 512 512" height="512" viewBox="0 0 512 512" width="512" xmlns="http://www.w3.org/2000/svg"><g><g><g><circle cx="256" cy="261.871" fill="#23f1a8" r="203.268"/><path d="m68.557 340.588c9.423 22.402 22.733 42.767 39.102 60.235h296.682c16.369-17.468 29.679-37.833 39.102-60.235z" fill="#26d192"/><path d="m459.263 261.871c0 112.266-90.997 203.263-203.263 203.263-7.356 0-14.61-.393-21.764-1.157 102.013-10.859 181.488-97.196 181.488-202.106s-79.475-191.247-181.488-202.106c7.153-.764 14.408-1.157 21.764-1.157 112.266 0 203.263 90.997 203.263 203.263z" fill="#26d192"/><circle cx="256" cy="261.871" fill="#127e73" r="166.214"/><g fill="#0c6e65"><path d="m109.597 340.588c13.132 24.366 32.156 45.088 55.181 60.235h182.444c23.025-15.147 42.049-35.869 55.181-60.235z"/><path d="m422.215 261.871c0 91.794-74.421 166.215-166.215 166.215-8.052 0-15.969-.573-23.718-1.685 80.553-11.511 142.486-80.788 142.486-164.531s-61.933-153.019-142.486-164.53c7.749-1.112 15.666-1.684 23.718-1.684 91.794 0 166.215 74.421 166.215 166.215z"/></g></g><g><g><path d="m221.104 51.683-56.503 56.503c-3.322 3.322-3.195 8.747.28 11.909l33.064 30.091c3.455 3.144 8.831 2.787 11.839-.787l16.364-19.443v205.029h62.53v-279.892c0-4.547-3.686-8.232-8.232-8.232h-47.7c-4.366 0-8.554 1.735-11.642 4.822z" fill="#fcb44d"/></g><g><path d="m288.679 55.093v279.896h-29.445v-279.896c0-4.548-3.695-8.232-8.232-8.232h29.445c4.549 0 8.232 3.684 8.232 8.232z" fill="#fb9927"/></g></g></g><g><path d="m501.698 375.949h-491.396c-5.69 0-10.302-4.613-10.302-10.302v-82.399c0-5.69 4.612-10.302 10.302-10.302h491.396c5.69 0 10.302 4.612 10.302 10.302v82.399c0 5.689-4.612 10.302-10.302 10.302z" fill="#bc83df"/><path d="m512 283.246v82.404c0 5.687-4.615 10.302-10.302 10.302h-34.212c5.697 0 10.302-4.615 10.302-10.302v-82.404c0-5.687-4.605-10.302-10.302-10.302h34.212c5.687 0 10.302 4.615 10.302 10.302z" fill="#ae6ad8"/><g fill="#eaf6ff"><path d="m62.426 319.197h-9.798c-4.267 0-7.726 3.459-7.726 7.726 0 3 1.714 5.595 4.212 6.875-.901 1.308-2.406 2.17-4.111 2.17-2.753 0-4.992-2.239-4.992-4.992v-15.771c0-2.753 2.239-4.992 4.992-4.992 1.948 0 3.174 1.05 3.731 1.676 2.838 3.188 7.723 3.469 10.908.633 3.187-2.838 3.47-7.722.633-10.908-3.878-4.355-9.444-6.853-15.272-6.853-11.273 0-20.445 9.172-20.445 20.445v15.771c0 11.273 9.172 20.445 20.445 20.445 10.196 0 18.648-7.511 20.175-17.285 2.907-1.11 4.975-3.916 4.975-7.213-.001-4.268-3.46-7.727-7.727-7.727z"/><path d="m209.836 313.838c0-10.519-8.557-19.076-19.075-19.076h-13.617c-4.267 0-7.726 3.459-7.726 7.726v41.207c0 4.267 3.459 7.726 7.726 7.726s7.726-3.459 7.726-7.726v-10.782h3.856l6.35 13.977c1.294 2.849 4.101 4.533 7.039 4.533 1.068 0 2.155-.223 3.191-.694 3.885-1.765 5.604-6.345 3.839-10.23l-5.67-12.481c3.893-3.494 6.361-8.548 6.361-14.18zm-24.966-3.624h5.891c1.997 0 3.623 1.625 3.623 3.623s-1.625 3.623-3.623 3.623h-5.891z"/><path d="m143.42 294.762c-11.273 0-20.445 9.172-20.445 20.445v28.489c0 4.267 3.459 7.726 7.726 7.726s7.726-3.459 7.726-7.726v-7.608h9.984v7.608c0 4.267 3.459 7.726 7.726 7.726s7.726-3.459 7.726-7.726v-28.489c.001-11.274-9.17-20.445-20.443-20.445zm-4.992 25.873v-5.429c0-2.753 2.239-4.992 4.992-4.992s4.992 2.239 4.992 4.992v5.429z"/><path d="m234.655 294.762c-11.273 0-20.445 9.172-20.445 20.445v28.489c0 4.267 3.459 7.726 7.726 7.726s7.726-3.459 7.726-7.726v-7.608h9.984v7.608c0 4.267 3.459 7.726 7.726 7.726s7.726-3.459 7.726-7.726v-28.489c.002-11.274-9.17-20.445-20.443-20.445zm-4.992 25.873v-5.429c0-2.753 2.239-4.992 4.992-4.992s4.992 2.239 4.992 4.992v5.429z"/><path d="m108.742 296.118c-4.267 0-7.726 3.459-7.726 7.726v28.489c0 2.753-2.239 4.992-4.992 4.992s-4.992-2.239-4.992-4.992v-28.489c0-4.267-3.459-7.726-7.726-7.726s-7.726 3.459-7.726 7.726v28.489c0 11.273 9.172 20.445 20.445 20.445s20.445-9.172 20.445-20.445v-28.489c-.001-4.267-3.46-7.726-7.728-7.726z"/><path d="m293.836 294.762c-4.268 0-7.726 3.459-7.726 7.726v13.982l-11.136-18.04c-1.814-2.94-5.359-4.317-8.684-3.375-3.323.944-5.617 3.978-5.617 7.433v41.207c0 4.267 3.459 7.726 7.726 7.726 4.268 0 7.726-3.459 7.726-7.726v-13.981l11.136 18.04.006-.004c1.361 2.201 3.79 3.672 6.568 3.672 4.268 0 7.726-3.459 7.726-7.726v-41.207c.001-4.268-3.457-7.727-7.725-7.727z"/><path d="m340.226 294.762h-25.436c-4.268 0-7.726 3.459-7.726 7.726s3.459 7.726 7.726 7.726h4.992v33.481c0 4.267 3.459 7.726 7.726 7.726s7.726-3.459 7.726-7.726v-33.481h4.992c4.268 0 7.726-3.459 7.726-7.726.001-4.267-3.458-7.726-7.726-7.726z"/><path d="m386.278 310.214c4.268 0 7.726-3.459 7.726-7.726s-3.459-7.726-7.726-7.726h-25.437c-4.268 0-7.726 3.459-7.726 7.726v41.207c0 4.267 3.459 7.726 7.726 7.726h25.437c4.268 0 7.726-3.459 7.726-7.726s-3.459-7.726-7.726-7.726h-17.71v-5.151h12.115c4.268 0 7.726-3.459 7.726-7.726s-3.459-7.726-7.726-7.726h-12.115v-5.151h17.71z"/><path d="m433.002 310.214c4.268 0 7.726-3.459 7.726-7.726s-3.459-7.726-7.726-7.726h-25.437c-4.268 0-7.726 3.459-7.726 7.726v41.207c0 4.267 3.459 7.726 7.726 7.726h25.437c4.268 0 7.726-3.459 7.726-7.726s-3.459-7.726-7.726-7.726h-17.71v-5.151h12.114c4.268 0 7.726-3.459 7.726-7.726s-3.459-7.726-7.726-7.726h-12.114v-5.151h17.71z"/><path d="m466.998 294.762h-12.718c-4.268 0-7.726 3.459-7.726 7.726v41.207c0 4.267 3.459 7.726 7.726 7.726h12.718c11.274 0 20.445-9.172 20.445-20.445v-15.771c0-11.272-9.171-20.443-20.445-20.443zm4.992 36.215c0 2.753-2.239 4.992-4.992 4.992h-4.992v-25.755h4.992c2.753 0 4.992 2.239 4.992 4.992z"/></g></g><g><g><path d="m350.28 239.382-14.82 5.27c-2.837 1.009-5.802-1.146-5.719-4.155l.432-15.723-9.592-12.466c-1.836-2.386-.703-5.872 2.185-6.723l15.088-4.447 8.892-12.975c1.702-2.484 5.367-2.484 7.069 0l8.892 12.975 15.088 4.448c2.888.851 4.021 4.337 2.185 6.723l-9.592 12.466.432 15.724c.083 3.01-2.882 5.164-5.719 4.155z" fill="#fdef63"/><path d="m379.98 212.304-9.595 12.469.433 15.726c.083 3.007-2.882 5.164-5.714 4.156l-14.826-5.272-14.818 5.272c-2.84 1.008-5.805-1.149-5.722-4.156l.358-12.944c16.467 1.608 31.635-9.42 35.108-25.688l12.594 3.715c2.881.849 4.014 4.339 2.182 6.722z" fill="#f3d730"/></g><g><path d="m161.72 239.382-14.82 5.27c-2.837 1.009-5.802-1.146-5.719-4.155l.432-15.723-9.592-12.466c-1.836-2.386-.703-5.872 2.185-6.723l15.088-4.447 8.892-12.975c1.702-2.484 5.367-2.484 7.069 0l8.892 12.975 15.088 4.448c2.888.851 4.021 4.337 2.185 6.723l-9.592 12.466.432 15.724c.083 3.01-2.882 5.164-5.719 4.155z" fill="#fdef63"/><path d="m191.42 212.304-9.595 12.469.433 15.726c.083 3.007-2.882 5.164-5.714 4.156l-14.826-5.272-14.818 5.272c-2.84 1.008-5.805-1.149-5.722-4.156l.358-12.944c16.467 1.608 31.635-9.42 35.108-25.688l12.594 3.715c2.881.849 4.014 4.339 2.182 6.722z" fill="#f3d730"/></g></g></g></svg>