<svg id="Capa_1" enable-background="new 0 0 512 512" height="512" viewBox="0 0 512 512" width="512" xmlns="http://www.w3.org/2000/svg"><g><path d="m295.947 61.005v-30h64.95c8.28 0 15 6.72 15 15v38.79l4.39-4.4c5.86-5.85 15.36-5.85 21.22 0 5.85 5.86 5.85 15.36 0 21.22l-30 29.99c-5.7 5.7-15.14 5.97-21.12.1-.93-.92-28.86-28.81-30.09-30.03-5.86-5.86-5.87-15.36-.02-21.22 5.86-5.86 15.36-5.87 21.22-.02l4.4 4.4v-23.83z" fill="#99e875"/><path d="m217 450v30h-64.95c-8.28 0-15-6.72-15-15v-38.79l-4.39 4.4c-5.86 5.85-15.36 5.85-21.22 0-5.85-5.86-5.85-15.36 0-21.22l30-29.99c5.7-5.7 15.14-5.97 21.12-.1.93.92 28.86 28.81 30.09 30.03 5.86 5.86 5.87 15.36.02 21.22-5.86 5.86-15.36 5.87-21.22.02l-4.4-4.4v23.83z" fill="#db543e"/><path d="m46 211v14.475c0 58.28 47.245 105.525 105.525 105.525 58.28 0 105.525-47.245 105.525-105.525v-14.475h27.95l15-15v-181c0-8.284-6.716-15-15-15h-270c-8.284 0-15 6.716-15 15v181l15 15z" fill="#eef9ff"/><path d="m300 15v181l-15 15h-27.95v14.48c0 57.93-46.7 104.97-104.5 105.51v-330.99h132.45c8.28 0 15 6.72 15 15z" fill="#c4eaf5"/><path d="m242.05 196v29.475c0 49.996-40.529 90.525-90.525 90.525-49.996 0-90.525-40.529-90.525-90.525v-29.475h-61v164c0 8.284 6.716 15 15 15h270c8.284 0 15-6.716 15-15v-164z" fill="#c4eaf5"/><path d="m300 196v164c0 8.28-6.72 15-15 15h-132.45v-59.01c49.52-.54 89.5-40.86 89.5-90.51v-29.48z" fill="#98cee6"/><circle cx="152.55" cy="226.5" fill="#c4eaf5" r="45.5"/><path d="m198.05 226.5c0 25.09-20.41 45.5-45.5 45.5v-91c25.09 0 45.5 20.41 45.5 45.5z" fill="#98cee6"/><circle cx="46" cy="46" fill="#c4eaf5" r="15"/><circle cx="256" cy="46" fill="#98cee6" r="15"/><path d="m497 137h-270c-8.284 0-15 6.716-15 15v345c0 8.284 6.716 15 15 15h270c8.284 0 15-6.716 15-15v-345c0-8.284-6.716-15-15-15z" fill="#eef9ff"/><path d="m512 152v345c0 8.28-6.72 15-15 15h-135v-375h135c8.28 0 15 6.72 15 15z" fill="#c4eaf5"/><circle cx="468" cy="182" fill="#98cee6" r="15"/><circle cx="467" cy="467" fill="#98cee6" r="15"/><g fill="#c4eaf5"><circle cx="257" cy="182" r="15"/><circle cx="257" cy="467" r="15"/><path d="m360.898 241.835c-14.223 0-28.078 3.361-40.548 9.658l.92-7.496c1.01-8.223-4.837-15.707-13.06-16.716-8.227-1.024-15.707 4.836-16.716 13.06l-5.484 44.666c-1.01 8.223 4.837 15.707 13.06 16.716l44.663 5.484c.621.077 1.237.114 1.847.114 7.468-.001 13.936-5.572 14.869-13.174 1.01-8.223-4.837-15.707-13.06-16.717l-9.192-1.128c7.141-2.919 14.835-4.467 22.7-4.467 33.084 0 60 26.916 60 60s-26.916 60-60 60c-27.64 0-51.587-18.703-58.235-45.483-1.996-8.041-10.133-12.942-18.172-10.943-8.04 1.995-12.94 10.132-10.944 18.172 9.977 40.188 45.897 68.255 87.352 68.255 49.626 0 90-40.374 90-90s-40.374-90.001-90-90.001z"/></g><path d="m450.9 331.83c0 49.26-39.78 89.4-88.9 89.99v-30c32.57-.59 58.9-27.27 58.9-59.99 0-32.71-26.33-59.4-58.9-59.99v-30c49.12.59 88.9 40.74 88.9 89.99z" fill="#98cee6"/></g></svg>