<svg id="Capa_1" enable-background="new 0 0 497 497" height="512" viewBox="0 0 497 497" width="512" xmlns="http://www.w3.org/2000/svg"><g><g><path clip-rule="evenodd" d="m340.688 32.846c15.391 3.89 29.887 9.969 43.199 17.864l12.475-12.447c5.949-5.935 15.68-5.935 21.628 0l36.153 36.044c5.92 5.935 5.92 15.645 0 21.58l-12.503 12.447c7.912 13.282 14.005 27.775 17.932 43.103h17.615c8.403 0 15.305 6.857 15.305 15.242v50.998c0 8.413-6.901 15.27-15.305 15.27h-17.615c-3.927 15.328-10.02 29.821-17.932 43.074l12.503 12.476c5.92 5.935 5.92 15.645 0 21.58l-36.153 36.044c-5.949 5.935-15.68 5.935-21.628 0l-12.475-12.447c-13.312 7.895-27.808 13.945-43.199 17.864v17.604c0 8.384-6.873 15.242-15.276 15.242h-51.111c-8.403 0-15.305-6.857-15.305-15.242v-17.604c-15.362-3.918-29.887-9.969-43.17-17.864l-12.475 12.447c-5.949 5.935-15.68 5.935-21.628 0l-36.153-36.044c-5.949-5.935-5.949-15.645 0-21.58l12.475-12.447c-7.883-13.282-13.976-27.775-17.903-43.103h-17.615c-8.432 0-15.305-6.857-15.305-15.27v-50.998c0-8.384 6.873-15.242 15.305-15.242h17.615c3.927-15.328 10.02-29.821 17.903-43.103l-12.475-12.447c-5.949-5.935-5.949-15.645 0-21.58l36.153-36.044c5.949-5.935 15.68-5.935 21.628 0l12.475 12.447c13.312-7.895 27.808-13.945 43.17-17.864v-17.604c.001-8.385 6.902-15.242 15.305-15.242h51.111c8.403 0 15.276 6.857 15.276 15.242z" fill="#737a93" fill-rule="evenodd"/></g><g><path clip-rule="evenodd" d="m454.144 74.307-36.154-36.044c-5.949-5.935-15.68-5.935-21.628 0l-12.475 12.447c-13.312-7.895-27.808-13.974-43.199-17.864v-17.604c0-8.385-6.873-15.242-15.276-15.242h-34.594c10.164 21.033 18.799 44.313 25.585 69.322 60.785 8.096 107.68 60.016 107.68 122.856 0 59.209-41.582 108.709-97.198 121.011-1.473.346-2.974.634-4.447.922-5.371 25.009-12.475 48.606-21.109 70.273h24.083c8.403 0 15.276-6.857 15.276-15.242v-17.604c15.391-3.918 29.887-9.969 43.199-17.864l12.475 12.447c5.949 5.935 15.68 5.935 21.628 0l36.153-36.044c5.92-5.935 5.92-15.645 0-21.58l-12.503-12.476c7.912-13.254 14.005-27.746 17.932-43.074h17.615c8.403 0 15.305-6.857 15.305-15.27v-50.998c0-8.384-6.901-15.242-15.305-15.242h-17.615c-3.927-15.328-10.02-29.821-17.932-43.103l12.503-12.447c5.92-5.935 5.92-15.645.001-21.58z" fill="#606b82" fill-rule="evenodd"/></g><g><path clip-rule="evenodd" d="m299.857 316.128c68.408 0 124.227-55.665 124.227-123.95 0-68.256-55.818-123.95-124.227-123.95-68.437 0-124.227 55.694-124.227 123.95 0 68.285 55.79 123.95 124.227 123.95z" fill="#fe636e" fill-rule="evenodd"/></g><g><path clip-rule="evenodd" d="m326.885 254.124c27.173-10.055 46.693-36.246 46.693-66.758 0-24.375-12.446-45.984-31.273-58.806-19.78-13.484-15.969 7.808-15.969 11.381v42.757c0 14.954-11.753 27.285-26.48 28.265-14.727-.98-26.48-13.311-26.48-28.265v-42.757c0-3.573 3.812-24.865-15.969-11.381-18.856 12.821-31.273 34.431-31.273 58.806 0 30.512 19.52 56.703 46.693 66.758v59.065c8.692 1.93 17.759 2.939 27.028 2.939s18.308-1.008 27.028-2.939v-59.065z" fill="#c1eaf4" fill-rule="evenodd"/></g><g><path clip-rule="evenodd" d="m326.885 313.189v-59.065c27.173-10.055 46.693-36.246 46.693-66.758 0-24.375-12.446-45.984-31.273-58.806-4.216-2.881-7.363-4.178-9.702-4.408 14.496 13.052 23.621 31.924 23.621 52.813 0 29.389-18.077 54.743-43.719 65.577-4.245 1.786-2.974 6.8-2.974 11.899v61.341c5.89-.461 11.694-1.325 17.354-2.593z" fill="#99cfe0" fill-rule="evenodd"/></g><g><path clip-rule="evenodd" d="m424.083 192.178c0-68.458-55.616-123.95-124.227-123.95-4.851 0-9.616.288-14.323.836 60.467 8.356 107.016 60.131 107.016 122.769 0 47.31-26.595 88.454-65.665 109.343v12.015c55.617-12.304 97.199-61.804 97.199-121.013z" fill="#f93e55" fill-rule="evenodd"/></g><g><path clip-rule="evenodd" d="m70.751 366.319-33.121 51.862 33.121 50.854 63.99 11.064 87.351 15.126c8.778 1.988 24.054 3.342 41.38-1.815l158.936-47.396c27.75-8.269 19.636-47.944-11.897-40.107l-16.315 3.803-84.983 19.823c-5.429 1.268-10.424 1.527-15.362 1.325-7.104-.317-14.092-1.585-22.033-2.19l-56.713-9.45c-22.697-5.359-16.2-33.163 3.35-31.722h18.048c40.312 0 39.474-48.635 3.985-54.455h-23.478c-8.403 0-16.026.23-23.736.922-16.95 1.498-34.392 5.215-61.738 13.628l-38.608 11.899z" fill="#ffe5c1" fill-rule="evenodd"/></g><g><path clip-rule="evenodd" d="m4.508 365.195v105.972.086c.029 6.252 5.169 11.381 11.464 11.381h43.315c6.324 0 11.464-5.157 11.464-11.467v-2.132-102.716-1.124c0-6.31-5.14-11.467-11.464-11.467h-43.315c-6.295 0-11.435 5.129-11.464 11.381z" fill="#6bd9e7" fill-rule="evenodd"/></g><g><path clip-rule="evenodd" d="m70.751 435.209v33.826l63.99 11.064 87.351 15.126c8.778 1.988 24.054 3.342 41.38-1.815l158.936-47.396c17.817-5.33 20.849-23.568 12.388-33.883-2.772 3.429-6.873 6.223-12.388 7.751l-28.212 7.808-91.134 29.187-45.105 12.447c-17.326 4.783-28.934-.576-37.713-2.766-50.447-9.826-99.046-21.495-149.493-31.349z" fill="#fed1a3" fill-rule="evenodd"/></g><g><path clip-rule="evenodd" d="m70.751 469.035v-33.826c0 6.31-5.14 11.467-11.464 11.467h-3.09-40.225c-6.295 0-11.435-5.129-11.464-11.381v35.871.086c.029 6.252 5.169 11.381 11.464 11.381h43.315c6.324 0 11.464-5.157 11.464-11.467z" fill="#00c7dd" fill-rule="evenodd"/></g></g></svg>