<svg id="Capa_1" enable-background="new 0 0 512 512" height="512" viewBox="0 0 512 512" width="512" xmlns="http://www.w3.org/2000/svg"><g><g><g><g><g><path d="m58.08 443.169h22.988l102.239 42.5c9.073 3.377 18.677 5.107 28.359 5.107h91.71c8.75 0 17.396-1.416 25.619-4.147l99.733-56.529c8.941-6.353 9.204-18.666 6.476-28.995l-12.79-3.461-101.447 44.668-1.603-2.039.071-9.722 1.636-3.693.025-2.226c.05-6.832-1.515-13.633-4.905-19.565-5.837-10.215-16.163-17.535-28.39-19.265l-81.735-9.41c-18.855-2.668-28.276-8.986-44.713-18.601-22.441-13.127-47.97-20.046-73.968-20.046h-29.306z" fill="#ffddce"/></g><path d="m488.684 389.686c-7.487-11.003-19.872-12.915-33.5-6.471l-32.771 14.429c6.242 9.968 4.439 23.047-4.424 30.916l-88.996 50.343c-8.223 2.731-16.87 4.147-25.62 4.147h-91.71c-9.682 0-19.285-1.729-28.359-5.107l-102.239-42.5h-22.985v31.685l106.835 39.766c9.073 3.377 18.677 5.107 28.359 5.107h110.102c15.408 0 30.498-4.379 43.514-12.626l137.857-77.984c9.094-8.077 10.78-21.649 3.937-31.705z" fill="#ffcbbe"/><g><path d="m33.158 443.169h24.922 22.988v-117.248c0-7.751-6.284-14.035-14.035-14.035h-33.875c-7.751 0-14.035 6.284-14.035 14.035v103.214c0 7.751 6.284 14.034 14.035 14.034z" fill="#e07f84"/></g><path d="m19.123 421.408v67c0 7.751 6.284 14.035 14.035 14.035h33.874c7.751 0 14.035-6.284 14.035-14.035v-52.965h-47.909c-7.751 0-14.035-6.284-14.035-14.035z" fill="#db636e"/></g><g><g><g><path d="m363.421 166.804c-.276-78.888-53.659-145.173-126.173-165.125-3.408-.938-7.121-.449-9.972 1.641-4.031 2.956-6.65 7.702-6.6 13.066.001.075.001.149.001.223-.016 3.216-2.191 5.997-5.286 6.868-11.787 3.317-22.983 8.039-33.393 13.979-2.804 1.6-6.323 1.152-8.612-1.124l-.044-.044-.005-.005c-6.507-6.165-17-6.005-23.316.356l-25.799 25.98c-6.341 6.386-6.305 16.702.081 23.043l.005.005c.072.072.144.144.214.217 2.173 2.235 2.592 5.624 1.064 8.342-5.905 10.503-10.574 21.792-13.819 33.668-.84 3.073-3.624 5.21-6.81 5.246-.074.001-.149.001-.223.001-8.961-.023-16.17 7.389-16.139 16.351l.13 37.001c.031 8.962 7.293 16.322 16.255 16.237.276-.002.551.002.824.014 2.915.125 5.409 2.197 6.194 5.007 3.326 11.9 8.082 23.2 14.077 33.701 1.547 2.708 1.178 6.138-.977 8.393-.071.074-.142.148-.215.22l-.005.005c-6.256 6.417-6.172 16.833.187 23.148l25.807 25.627c6.442 6.397 16.803 6.512 23.384.259l.005-.005c.063-.064.127-.127.192-.19 2.254-2.197 5.677-2.599 8.421-1.057 10.555 5.928 21.902 10.608 33.84 13.85 2.886.784 4.903 3.365 5.009 6.354.007.203.011.406.01.61-.01 4.474 1.831 8.51 4.792 11.427 2.999 2.954 7.412 3.958 11.466 2.823 72.585-20.323 125.706-87.075 125.43-166.112z" fill="#7fb2f9"/></g><path d="m423.276 148.319c-.031-8.961-7.292-16.324-16.253-16.237-.224.002-.448 0-.671-.008-3.017-.097-5.579-2.269-6.395-5.176-3.323-11.839-8.063-23.084-14.031-33.536-1.547-2.71-1.179-6.142.978-8.398.07-.073.141-.146.213-.218l.005-.005c6.327-6.41 6.275-16.731-.116-23.078l-26.333-26.15c-6.369-6.325-16.675-6.236-22.934.197-.072.073-.145.145-.219.216-2.24 2.171-5.667 2.564-8.387 1.036-10.495-5.895-21.773-10.557-33.637-13.797-2.911-.795-5.1-3.341-5.218-6.357-.009-.223-.013-.446-.012-.671.022-8.962-7.389-16.172-16.35-16.14l-37.002.129c-4.056.014-7.775 1.52-10.633 3.983 74.405 16.806 130.09 83.183 130.368 162.707.279 79.672-55.148 146.533-129.643 163.708 2.926 2.666 6.821 4.299 11.079 4.284l37.002-.13c8.963-.031 16.322-7.294 16.237-16.256-.001-.075-.001-.149 0-.224.014-3.183 2.128-5.981 5.193-6.841 11.838-3.323 23.08-8.063 33.531-14.03 2.708-1.546 6.136-1.177 8.39.977.074.071.148.143.222.216l.005.005c6.385 6.341 16.702 6.305 23.043-.081l26.108-26.291c6.335-6.38 6.283-16.692-.116-23.007l-.005-.005c-.074-.073-.146-.147-.218-.221-2.169-2.239-2.562-5.663-1.035-8.381 5.895-10.493 10.556-21.769 13.796-33.63.839-3.07 3.621-5.203 6.803-5.24.075-.001.149-.001.224-.001 8.963.021 16.174-7.388 16.143-16.351z" fill="#60a0f7"/><g><path d="m256.352 268.074c-55.597.194-100.825-44.719-101.02-100.316-.195-55.598 44.718-100.826 100.316-101.02 55.597-.195 100.825 44.718 101.02 100.316.194 55.597-44.719 100.825-100.316 101.02z" fill="#eaf2ff"/></g></g><g><g><path d="m205.442 254.468 10.068-10.068c11.987-11.987 28.003-19.021 44.932-19.91.126-.007.253-.013.38-.021 13.896-.778 27.568-6.475 38.184-17.091 15.472-15.472 20.496-37.433 15.074-57.121-1.028-3.735-5.689-4.992-8.429-2.252l-30.866 30.866c-5.174 5.174-13.562 5.174-18.736 0l-11.516-11.516c-5.174-5.174-5.174-13.562 0-18.736l30.866-30.866c2.739-2.739 1.483-7.401-2.252-8.429-19.688-5.421-41.649-.397-57.121 15.074-10.616 10.616-16.313 24.288-17.091 38.184-.007.127-.014.254-.021.38-.889 16.929-7.923 32.945-19.91 44.932l-10.072 10.072c8.794 15.11 21.407 27.713 36.51 36.502z" fill="#bcd6f9"/></g></g></g></g></g><path d="m321.079 426.858h-99.31c-4.268 0-7.726 3.459-7.726 7.726s3.459 7.726 7.726 7.726l99.198.001z" fill="#ffcbbe"/><g><g><path d="m255.994 280.028c-61.919 0-112.398-50.261-112.616-112.228-.216-62.1 50.129-112.798 112.227-113.016h.4c61.919 0 112.398 50.261 112.616 112.228.216 62.1-50.129 112.798-112.227 113.016-.132 0-.267 0-.4 0zm.346-15.454.027 7.726-.027-7.726c53.578-.188 97.016-43.93 96.829-97.509-.187-53.461-43.745-96.829-97.164-96.829-.118 0-.227 0-.345.001-53.578.188-97.016 43.93-96.829 97.509.187 53.461 43.745 96.829 97.164 96.829.118 0 .227 0 .345-.001z" fill="#9bc4f9"/></g></g></g></svg>