<?xml version="1.0" encoding="utf-8"?>
<!-- Generator: Adobe Illustrator 23.0.6, SVG Export Plug-In . SVG Version: 6.00 Build 0)  -->
<svg version="1.1" id="Layer_1" xmlns="http://www.w3.org/2000/svg" xmlns:xlink="http://www.w3.org/1999/xlink" x="0px" y="0px"
	 viewBox="0 0 3459 2160" style="enable-background:new 0 0 3459 2160;" xml:space="preserve">
<style type="text/css">
	.st0{opacity:0.11;fill:url(#SVGID_1_);enable-background:new    ;}
	.st1{opacity:0.19;fill:url(#SVGID_2_);enable-background:new    ;}
	.st2{fill:#FFFFFF;}
	.st3{fill:url(#SVGID_3_);}
	.st4{fill:url(#SVGID_4_);}
	.st5{fill:url(#SVGID_5_);}
	.st6{fill:url(#SVGID_6_);}
	.st7{fill:url(#SVGID_7_);}
	.st8{fill:url(#SVGID_8_);}
	.st9{fill:url(#SVGID_9_);}
	.st10{fill:url(#SVGID_10_);}
	.st11{fill:url(#SVGID_11_);}
	.st12{fill:url(#SVGID_12_);}
	.st13{fill:url(#SVGID_13_);}
	.st14{fill:url(#SVGID_14_);}
	.st15{fill:url(#SVGID_15_);}
	.st16{fill:url(#SVGID_16_);}
	.st17{fill:url(#SVGID_17_);}
	.st18{fill:url(#SVGID_18_);}
	.st19{fill:url(#SVGID_19_);}
	.st20{fill:url(#SVGID_20_);}
	.st21{fill:url(#SVGID_21_);}
	.st22{fill:url(#SVGID_22_);}
	.st23{fill:url(#SVGID_23_);}
	.st24{fill:url(#SVGID_24_);}
	.st25{fill:url(#SVGID_25_);}
	.st26{fill:url(#SVGID_26_);}
	.st27{fill:url(#SVGID_27_);}
	.st28{fill:url(#SVGID_28_);}
	.st29{fill:url(#SVGID_29_);}
	.st30{fill:url(#SVGID_30_);}
</style>
<g id="Background">
</g>
<g id="Illustration">
	<g>
		
			<linearGradient id="SVGID_1_" gradientUnits="userSpaceOnUse" x1="-1905.0657" y1="-353.3714" x2="1553.5751" y2="-353.3714" gradientTransform="matrix(-1 0 0 1 1553.6138 1450)">
			<stop  offset="0" style="stop-color:#B37CFF"/>
			<stop  offset="1" style="stop-color:#F895E7"/>
		</linearGradient>
		<path class="st0" d="M109.7,1548c-140.1-176.1-167.7-279.6,46.9-450.4s92.3-347.7,27.9-472.4s-114-350.9,144.6-415.4
			s555.1,124.8,685.2-6s116.8-196.6,400.8-153c284.1,43.7,360.4,253.8,608.1,235.2c247.7-18.6,367.4-400.7,787.8-136.3
			c198.3,124.7,281-19.4,400.9,112.8c373.9,412.2-99.9,568.4,120.2,631.6c239,68.7,90.3,371.6-44.2,459.1
			c-134.5,87.6-234.5,140.2-43.4,229.7s224.5,188.5,144.4,349.5s-231.9,211.8-862.8,221.3c-630.9,9.6-1852.7-10.7-2186-102.3
			C6.8,1960,249.8,1724.2,109.7,1548z"/>
		
			<linearGradient id="SVGID_2_" gradientUnits="userSpaceOnUse" x1="-1743.4072" y1="-357.4255" x2="1516.0706" y2="-357.4255" gradientTransform="matrix(-1 0 0 1 1553.6138 1450)">
			<stop  offset="0" style="stop-color:#B37CFF"/>
			<stop  offset="1" style="stop-color:#F895E7"/>
		</linearGradient>
		<path class="st1" d="M2632.5,205.9c186.9,113.1,319,25.8,431.9,145.5c352.4,373.6-94.2,515.2,113.3,572.5
			c225.3,62.2,85.1,336.8-41.6,416.2c-126.8,79.4-221,127.1-40.9,208.2s211.6,170.8,136,316.8c-75.5,146-218.6,192-813.1,200.6
			c-594.5,8.7-1745.9-9.7-2060-92.8C44,1890,272.9,1676.2,140.9,1516.6c-132.1-159.7-158-253.4,44.2-408.3s87-315.1,26.3-428.2
			c-60.7-113-107.4-318,136.3-376.5s527.1,174.8,649.7,56.3s68.6-275.7,336.3-236.2c267.7,39.6,338,261.4,571.5,244.6
			C2138.6,351.5,2236.3-33.8,2632.5,205.9z"/>
		<g>
			<g>
				<g>
					<path class="st2" d="M2340.7,356.6c0.8,0.1,1.7-0.2,2.3-0.9c2.2-2.6,4.5-5.1,6.9-7.6c1-1,0.9-2.7-0.1-3.7s-2.7-0.9-3.7,0.1
						c-2.4,2.5-4.8,5.1-7,7.7c-0.9,1.1-0.8,2.7,0.3,3.6C2339.8,356.3,2340.2,356.5,2340.7,356.6z"/>
					<path class="st2" d="M2478.4,714.8c3.9,0.5,7.9,0.9,11.8,1.1c1.4,0.1,2.7-1,2.8-2.4s-1-2.6-2.4-2.8c-3.8-0.3-7.8-0.7-11.5-1.1
						c-2.8-0.3-5.6-0.8-8.5-1.2c-1.4-0.3-2.7,0.7-3,2.1c-0.2,1.4,0.7,2.7,2.1,3C2472.6,714,2475.5,714.4,2478.4,714.8z
						 M2437.7,705.7c1.2,0.1,2.4-0.6,2.8-1.8c0.4-1.4-0.3-2.8-1.7-3.3c-6.2-2-12.3-4.4-18.3-6.9l-0.5-0.2c-1.3-0.6-2.8,0-3.4,1.3
						c-0.6,1.3,0,2.8,1.4,3.4l0.5,0.2c6.1,2.6,12.4,5,18.8,7.1C2437.4,705.6,2437.5,705.6,2437.7,705.7z M2389.3,683
						c1,0.1,2-0.3,2.5-1.2c0.8-1.2,0.4-2.8-0.8-3.6c-5.7-3.6-11.2-7.4-16.5-11.5c-1.1-0.9-2.8-0.7-3.6,0.5c-0.9,1.1-0.7,2.8,0.5,3.6
						c5.4,4.2,11.1,8.1,16.9,11.8C2388.6,682.8,2389,683,2389.3,683z M2348,649.3c0.7,0.1,1.5-0.1,2.1-0.7c1-1,1.1-2.6,0.1-3.7
						c-4.6-4.8-9.1-9.9-13.2-15.2c-0.9-1.1-2.5-1.3-3.6-0.4c-1.1,0.9-1.3,2.5-0.4,3.6c4.2,5.4,8.8,10.6,13.5,15.6
						C2346.9,648.9,2347.4,649.2,2348,649.3z M2316.1,606.4c0.5,0.1,1.1,0,1.6-0.3c1.2-0.7,1.7-2.3,1-3.5c-3.3-5.8-6.4-11.9-9.1-18
						c-0.6-1.3-2.1-1.9-3.4-1.3c-1.3,0.6-1.9,2.1-1.3,3.4c2.8,6.3,6,12.4,9.3,18.4C2314.6,605.9,2315.4,606.3,2316.1,606.4z
						 M2295.7,557.1c0.3,0,0.7,0,1-0.1c1.4-0.4,2.2-1.8,1.8-3.2c-1.8-6.4-3.3-13.1-4.5-19.6c-0.3-1.4-1.6-2.3-3-2.1
						c-1.4,0.3-2.3,1.6-2.1,3c1.2,6.7,2.8,13.5,4.6,20.1C2293.8,556.3,2294.6,557,2295.7,557.1z M2287.7,504.4c0.1,0,0.3,0,0.4,0
						c1.4,0,2.6-1.2,2.5-2.6c-0.2-6.7,0-13.5,0.4-20.1c0.1-1.4-1-2.7-2.4-2.8c-1.4-0.1-2.7,1-2.8,2.4c-0.5,6.8-0.6,13.8-0.4,20.6
						C2285.5,503.1,2286.5,504.2,2287.7,504.4z M2293,451.2c1.3,0.2,2.5-0.7,2.8-2c1.5-6.5,3.3-13.1,5.4-19.4
						c0.4-1.4-0.3-2.8-1.7-3.3c-1.4-0.4-2.8,0.3-3.3,1.7c-2.1,6.5-4,13.2-5.5,19.9c-0.3,1.4,0.6,2.8,2,3.1
						C2292.8,451.2,2292.9,451.2,2293,451.2z M2311,400.9c1.1,0.1,2.1-0.4,2.6-1.4c3-6,6.3-11.9,9.9-17.5c0.8-1.2,0.4-2.8-0.8-3.6
						c-1.2-0.8-2.8-0.4-3.6,0.8c-3.6,5.8-7,11.8-10.1,18c-0.6,1.3-0.1,2.8,1.1,3.5C2310.5,400.8,2310.8,400.9,2311,400.9z"/>
					<path class="st2" d="M2523.3,715.7c0.2,0,0.4,0,0.5,0c3.4-0.3,6.9-0.7,10.4-1.1c1.4-0.2,2.4-1.5,2.2-2.9s-1.5-2.4-2.9-2.2
						c-3.4,0.4-6.8,0.8-10.1,1.1c-1.4,0.1-2.5,1.4-2.4,2.8C2521.2,714.6,2522.1,715.5,2523.3,715.7z"/>
				</g>
				<g>
					<path class="st2" d="M2674.7,635.1c0.9,0.1,1.8-0.2,2.3-0.9c2.2-2.7,4.3-5.5,6.3-8.3c0.8-1.2,0.6-2.8-0.6-3.6
						c-1.2-0.8-2.8-0.6-3.6,0.6c-2,2.8-4.1,5.5-6.2,8.1c-0.9,1.1-0.7,2.7,0.4,3.6C2673.8,634.9,2674.3,635.1,2674.7,635.1z"/>
					<path class="st2" d="M2698.1,599.2c1,0.1,2.1-0.4,2.6-1.4c2.4-4.7,4.7-9.5,6.8-14.4c0.6-1.3,1.1-2.7,1.7-4
						c0.5-1.3-0.1-2.8-1.4-3.4c-1.3-0.5-2.8,0.1-3.4,1.4c-0.5,1.3-1.1,2.6-1.6,3.9c-2,4.7-4.3,9.5-6.7,14.1
						c-0.7,1.3-0.2,2.8,1.1,3.5C2697.5,599.1,2697.8,599.2,2698.1,599.2z M2716.6,550c1.3,0.2,2.5-0.7,2.8-2
						c1.6-6.6,2.9-13.3,3.9-19.9c0.2-1.4-0.8-2.7-2.2-2.9s-2.7,0.8-2.9,2.2c-1,6.5-2.2,13.1-3.8,19.5c-0.3,1.4,0.5,2.8,1.9,3.1
						C2716.4,550,2716.5,550,2716.6,550z M2722.6,497.8c0.1,0,0.2,0,0.3,0c1.4,0,2.6-1.2,2.6-2.6c0-6.7-0.4-13.6-1.1-20.3
						c-0.1-1.4-1.4-2.5-2.8-2.3c-1.4,0.1-2.5,1.4-2.3,2.8c0.6,6.5,1,13.2,1,19.8C2720.4,496.6,2721.4,497.6,2722.6,497.8z
						 M2716,445.7c0.3,0,0.6,0,1-0.1c1.4-0.4,2.2-1.8,1.9-3.1c-1.7-6.5-3.6-13.1-5.9-19.4c-0.5-1.3-1.9-2.1-3.3-1.6
						c-1.3,0.5-2.1,2-1.6,3.3c2.2,6.2,4.1,12.6,5.7,19C2714.1,444.8,2715,445.6,2716,445.7z M2697.1,396.7c0.5,0.1,1,0,1.5-0.3
						c1.3-0.7,1.7-2.2,1.1-3.5c-3.2-5.9-6.6-11.8-10.3-17.5c-0.8-1.2-2.4-1.5-3.6-0.7s-1.5,2.4-0.7,3.6c3.6,5.5,7,11.2,10.1,17
						C2695.5,396.1,2696.3,396.6,2697.1,396.7z M2667,353.6c0.7,0.1,1.5-0.1,2-0.6c1.1-1,1.2-2.6,0.2-3.6c-4.5-5-9.3-9.9-14.2-14.5
						c-1-1-2.7-0.9-3.7,0.1s-0.9,2.7,0.1,3.7c4.8,4.5,9.5,9.2,13.9,14.1C2665.8,353.3,2666.4,353.6,2667,353.6z M2627.4,319.1
						c0.9,0.1,1.9-0.3,2.5-1.1c0.8-1.2,0.5-2.8-0.7-3.6c-5.6-3.8-11.4-7.3-17.3-10.6c-1.3-0.7-2.8-0.2-3.5,1s-0.2,2.8,1,3.5
						c5.8,3.2,11.4,6.7,16.9,10.4C2626.7,318.9,2627,319.1,2627.4,319.1z M2580.7,295.1c1.2,0.1,2.3-0.5,2.7-1.7
						c0.5-1.3-0.2-2.8-1.5-3.3c-6.3-2.3-12.8-4.4-19.3-6.2c-1.4-0.4-2.8,0.4-3.2,1.8s0.4,2.8,1.8,3.2c6.4,1.7,12.7,3.8,18.9,6
						C2580.3,295,2580.5,295,2580.7,295.1z M2509.6,281.5c0.1,0,0.2,0,0.3,0c6.6,0.1,13.2,0.6,19.8,1.3c1.4,0.2,2.7-0.9,2.9-2.3
						s-0.8-2.7-2.3-2.9l0,0c-6.7-0.8-13.5-1.2-20.2-1.4c-1.4,0-2.6,1.1-2.6,2.5C2507.3,280.2,2508.3,281.3,2509.6,281.5z"/>
					<path class="st2" d="M2466.8,284.9c0.3,0,0.5,0,0.8,0c3.3-0.6,6.7-1.1,10.1-1.6c1.4-0.2,2.4-1.5,2.2-2.9s-1.5-2.4-2.9-2.2
						c-3.4,0.5-6.9,1-10.3,1.6c-1.4,0.3-2.3,1.6-2.1,3C2464.8,283.9,2465.7,284.8,2466.8,284.9z"/>
				</g>
				<g>
					
						<linearGradient id="SVGID_3_" gradientUnits="userSpaceOnUse" x1="-890.3781" y1="-1104.8123" x2="-1085.7067" y2="-614.108" gradientTransform="matrix(-1 0 0 1 1553.6138 1450)">
						<stop  offset="0" style="stop-color:#FDF53F"/>
						<stop  offset="1" style="stop-color:#D93C65"/>
					</linearGradient>
					<path class="st3" d="M2455.5,337c1-0.4,2.2-0.2,3,0.6L2480,361c14.6-2.7,29.7-3,44.8-0.8l20.6-24.1c0.7-0.8,1.9-1.1,2.9-0.7
						l35.5,13.9c1,0.4,1.7,1.4,1.7,2.5l-1.4,31.7c12.6,8.7,23.4,19.2,32.2,31.1l31.7-2.5c1.1-0.1,2.2,0.5,2.6,1.6l15.2,34.9
						c0.4,1,0.2,2.2-0.6,3l-23.4,21.5c2.7,14.6,3,29.7,0.8,44.8l24.1,20.6c0.8,0.7,1.1,1.9,0.7,2.9l-13.9,35.5
						c-0.4,1-1.4,1.7-2.5,1.7l-31.7-1.4c-8.7,12.6-19.2,23.4-31.1,32.2l2.5,31.7c0.1,1.1-0.5,2.2-1.6,2.6l-34.9,15.2
						c-1,0.4-2.2,0.2-3-0.6l-21.5-23.4c-14.6,2.7-29.7,3-44.8,0.8l-20.6,24.1c-0.7,0.8-1.9,1.1-2.9,0.7l-35.5-13.9
						c-1-0.4-1.7-1.4-1.7-2.5l1.4-31.7c-12.6-8.7-23.4-19.2-32.3-31.1l-31.7,2.5c-1.1,0.1-2.2-0.5-2.6-1.6l-15.2-34.9
						c-0.4-1-0.2-2.2,0.6-3l23.4-21.5c-2.7-14.6-3-29.7-0.8-44.8l-24.1-20.6c-0.8-0.7-1.1-1.9-0.7-2.9l13.9-35.5
						c0.4-1,1.4-1.7,2.5-1.7l31.7,1.4c8.7-12.6,19.2-23.4,31.1-32.2l-2.5-31.7c-0.1-1.1,0.5-2.2,1.6-2.6L2455.5,337z"/>
					<path class="st2" d="M2500.1,535.4c3.5,0.4,7.2,0.4,10.8-0.2c9.9-1.6,18.6-7,24.5-15.2c5.9-8.2,8.2-18.2,6.6-28.1
						c-1.6-9.9-7-18.6-15.2-24.5s-18.2-8.2-28.1-6.6c-9.9,1.6-18.6,7-24.5,15.2s-8.2,18.2-6.6,28.1c1.6,9.9,7,18.6,15.2,24.5
						C2488,532.3,2494,534.6,2500.1,535.4z M2508.5,468.2c4.9,0.6,9.6,2.4,13.7,5.4c13.4,9.6,16.5,28.4,6.9,41.8
						c-4.7,6.5-11.6,10.8-19.5,12.1s-15.8-0.5-22.3-5.2s-10.8-11.6-12.1-19.5s0.6-15.8,5.2-22.3c4.7-6.5,11.6-10.8,19.5-12.1
						C2502.8,467.9,2505.7,467.9,2508.5,468.2z"/>
					<path class="st2" d="M2493.5,593.9c16.8,2.1,33.9-0.4,49.8-7.3c23.5-10.2,41.5-29,50.9-52.8c3-7.7,5-15.5,6-23.5
						c2.1-16.8-0.4-33.9-7.3-49.8c-10.2-23.5-29-41.5-52.8-50.9c-0.6-0.2-1.2-0.5-1.9-0.7c-5.1-1.9-10.4-3.4-15.8-4.4
						c-0.7-0.1-1.3-0.2-2-0.4l-1.3,7.7c6.1,1,12.2,2.7,18.1,5c20.7,8.2,37.3,23.5,46.9,43.4c0.5,1.1,1.1,2.3,1.6,3.4
						c6.4,14.6,8.6,30.4,6.7,45.8c-0.9,7.3-2.7,14.6-5.5,21.6c-8.6,21.9-25.2,39.1-46.8,48.5s-45.5,9.8-67.4,1.2
						c-38.1-15-60-53.8-55.2-92.8c0.9-7.2,2.7-14.4,5.5-21.4c5.8-14.9,15.6-27.8,28.2-37.5l-4.7-6.1c-13.7,10.5-24.3,24.7-30.6,40.8
						c-3,7.7-5,15.5-5.9,23.3c-5.2,42.4,18.5,84.6,60,100.9C2477.7,590.9,2485.5,592.9,2493.5,593.9z"/>
				</g>
			</g>
			<g>
				<g>
					<path class="st2" d="M2053.1,154.8c1.2,0.1,2.4-0.3,3.1-1.3c2.8-3.5,5.7-6.9,8.8-10.2c1.3-1.4,1.3-3.6-0.1-4.9
						c-1.4-1.3-3.6-1.3-4.9,0.1c-3.2,3.4-6.3,7-9.2,10.6c-1.2,1.5-0.9,3.7,0.6,4.8C2051.9,154.5,2052.5,154.8,2053.1,154.8z"/>
					<path class="st2" d="M2130.5,390.5c1.7,0.2,3.3-0.8,3.7-2.5c0.5-1.8-0.6-3.7-2.4-4.2c-6.4-1.8-12.8-4-19-6.7
						c-2.2-0.9-4.3-1.9-6.5-3c-1.7-0.8-3.8-0.1-4.6,1.6s-0.1,3.8,1.6,4.6c2.2,1.1,4.5,2.1,6.7,3.1c6.5,2.8,13.2,5.2,19.9,7
						C2130.2,390.5,2130.3,390.5,2130.5,390.5z M2067.3,354.9c1,0.1,2.1-0.2,2.9-1c1.3-1.4,1.3-3.6-0.1-4.9
						c-6.6-6.2-12.6-13.2-17.9-20.6c-1.1-1.5-3.3-1.9-4.8-0.8s-1.9,3.3-0.8,4.8c5.5,7.7,11.8,15,18.7,21.5
						C2065.9,354.5,2066.6,354.8,2067.3,354.9z M2028.5,293.5c0.5,0.1,1,0,1.5-0.1c1.8-0.6,2.8-2.5,2.2-4.3
						c-2.8-8.6-4.9-17.6-6.1-26.6c-0.2-1.9-2-3.2-3.9-3s-3.2,2-3,3.9c1.2,9.4,3.4,18.8,6.3,27.8
						C2026.1,292.5,2027.3,293.3,2028.5,293.5z M2023.4,221.1c1.8,0.2,3.5-1,3.8-2.8c1.6-8.9,4-17.8,7.3-26.3c0.7-1.8-0.2-3.8-2-4.4
						c-1.8-0.7-3.8,0.2-4.4,2c-3.4,8.9-6,18.2-7.6,27.5C2020.2,219,2021.4,220.8,2023.4,221.1
						C2023.2,221.1,2023.3,221.1,2023.4,221.1z"/>
					<path class="st2" d="M2175.6,395.7c0.2,0,0.4,0,0.6,0c4.7-0.2,9.4-0.6,14-1.2c1.9-0.3,3.2-2,3-3.9c-0.3-1.9-2-3.2-3.9-3
						c-4.4,0.6-8.9,1-13.4,1.1c-1.9,0.1-3.4,1.7-3.3,3.6C2172.6,394.2,2173.9,395.5,2175.6,395.7z"/>
				</g>
				<g>
					<path class="st2" d="M2285.9,340.2c1.1,0.1,2.3-0.3,3.1-1.3c2.9-3.6,5.7-7.5,8.3-11.4c1-1.6,0.6-3.7-1-4.8
						c-1.6-1-3.7-0.6-4.8,1c-2.5,3.7-5.1,7.4-7.9,10.9c-1.2,1.5-1,3.6,0.5,4.8C2284.7,339.9,2285.3,340.1,2285.9,340.2z"/>
					<path class="st2" d="M2312.7,288.7c1.6,0.2,3.2-0.8,3.7-2.4c2.3-7.8,4-15.9,5-24c0.1-1.2,0.3-2.4,0.4-3.6
						c0.2-1.9-1.3-3.5-3.1-3.8c-1.9-0.2-3.6,1.2-3.8,3.1c-0.1,1.1-0.2,2.3-0.4,3.4c-1,7.7-2.6,15.4-4.7,22.9
						c-0.5,1.8,0.5,3.7,2.3,4.3C2312.3,288.7,2312.5,288.7,2312.7,288.7z M2315.6,217.4c0.4,0,0.7,0,1.1,0c1.9-0.4,3.1-2.2,2.7-4.1
						c-1.9-9.2-4.6-18.2-8.1-26.9c-0.7-1.8-2.7-2.6-4.5-1.9c-1.8,0.7-2.6,2.7-1.9,4.5c3.4,8.3,6,16.9,7.8,25.6
						C2313,216.1,2314.2,217.2,2315.6,217.4z M2285,152.9c0.9,0.1,1.8-0.1,2.6-0.7c1.5-1.2,1.7-3.4,0.5-4.8
						c-5.9-7.2-12.5-14-19.7-20c-1.5-1.2-3.6-1-4.8,0.4c-1.2,1.5-1,3.6,0.4,4.8c6.8,5.8,13.2,12.2,18.8,19.1
						C2283.4,152.4,2284.2,152.8,2285,152.9z M2227.9,110.1c1.5,0.2,3-0.6,3.6-2.1c0.7-1.7-0.1-3.8-1.8-4.5
						c-8.6-3.7-17.6-6.5-26.7-8.5c-1.9-0.5-3.7,0.8-4.1,2.6c-0.4,1.9,0.8,3.7,2.6,4.1c8.7,1.9,17.3,4.7,25.5,8.2
						C2227.2,110,2227.6,110.1,2227.9,110.1z"/>
					<path class="st2" d="M2143.6,100.6c0.3,0,0.7,0,1,0c4.4-0.8,8.9-1.4,13.3-1.8c1.9-0.2,3.3-1.8,3.1-3.7
						c-0.2-1.9-1.8-3.3-3.7-3.1c-4.7,0.4-9.3,1-14,1.9c-1.9,0.3-3.1,2.1-2.8,4C2140.9,99.4,2142.2,100.5,2143.6,100.6z"/>
				</g>
				<g>
					
						<linearGradient id="SVGID_4_" gradientUnits="userSpaceOnUse" x1="-504.6342" y1="-1437.9402" x2="-842.8874" y2="-732.8489" gradientTransform="matrix(-1 0 0 1 1553.6138 1450)">
						<stop  offset="0" style="stop-color:#FDF53F"/>
						<stop  offset="1" style="stop-color:#D93C65"/>
					</linearGradient>
					<path class="st4" d="M2136.1,134.6c0.7-0.3,1.5-0.1,2,0.4l14.7,16c10-1.8,20.3-2.1,30.7-0.6l14.1-16.5c0.5-0.6,1.3-0.8,2-0.5
						l24.3,9.5c0.7,0.3,1.2,1,1.1,1.7l-0.9,21.7c8.6,5.9,16,13.2,22.1,21.3l21.7-1.7c0.8-0.1,1.5,0.4,1.8,1.1l10.3,24
						c0.3,0.7,0.1,1.5-0.4,2l-16,14.7c1.8,10,2.1,20.3,0.6,30.7l16.5,14.1c0.6,0.5,0.8,1.3,0.5,2l-9.5,24.3c-0.3,0.7-1,1.2-1.7,1.1
						l-21.7-0.9c-5.9,8.6-13.2,16-21.3,22.1l1.7,21.7c0.1,0.8-0.4,1.5-1.1,1.8l-23.9,10.4c-0.7,0.3-1.5,0.1-2-0.4l-14.7-16
						c-10,1.8-20.3,2.1-30.7,0.6l-14.1,16.5c-0.5,0.6-1.3,0.8-2,0.5l-24.3-9.5c-0.7-0.3-1.2-1-1.1-1.7l0.9-21.7
						c-8.6-5.9-16-13.2-22.1-21.3l-21.7,1.7c-0.8,0.1-1.5-0.4-1.8-1.1l-10.4-23.9c-0.3-0.7-0.1-1.5,0.4-2l16-14.7
						c-1.8-10-2.1-20.3-0.6-30.7l-16.5-14.1c-0.6-0.5-0.8-1.3-0.5-2l9.5-24.3c0.3-0.7,1-1.2,1.7-1.1l21.7,0.9
						c5.9-8.6,13.2-16,21.3-22.1l-1.7-21.7c-0.1-0.8,0.4-1.5,1.1-1.8L2136.1,134.6z"/>
					<path class="st2" d="M2166.3,272.8c10,1.2,20.3-2.9,26.5-11.6c9.1-12.7,6.2-30.4-6.5-39.5s-30.4-6.2-39.5,6.5
						s-6.2,30.4,6.5,39.5C2157.3,270.6,2161.8,272.3,2166.3,272.8z M2180.3,230.1c8.1,5.8,9.9,17,4.1,25.1c-5.8,8.1-17,9.9-25.1,4.1
						c-8.1-5.8-9.9-17-4.1-25.1C2161,226.2,2172.3,224.3,2180.3,230.1z"/>
					<path class="st2" d="M2161.8,312.8c11.9,1.5,24.1-0.3,35.4-5.2c16.7-7.3,29.5-20.6,36.2-37.5c2.1-5.4,3.6-11,4.3-16.7
						c1.5-11.9-0.3-24.1-5.2-35.4c-7.3-16.7-20.6-29.5-37.5-36.2c-4.5-1.8-9.2-3.1-14-3.8l-1.7,10.2c4,0.7,8,1.8,11.9,3.3
						c13.7,5.4,24.7,15.6,31,28.8c0.1,0.2,0.2,0.4,0.3,0.6c0.2,0.4,0.4,0.8,0.6,1.2c4.2,9.6,5.6,19.9,4.4,30
						c-0.6,4.8-1.8,9.5-3.6,14.1c-5.6,14.4-16.5,25.6-30.7,31.8c-14.1,6.2-29.8,6.4-44.2,0.8s-25.6-16.5-31.8-30.7
						c-4.2-9.6-5.6-19.9-4.4-30c0.6-4.8,1.8-9.5,3.6-14.1c3.8-9.7,10.2-18.2,18.5-24.6l-6.3-8.2c-9.7,7.5-17.3,17.5-21.8,29
						c-2.1,5.4-3.6,11-4.3,16.7c-1.5,11.9,0.3,24.1,5.2,35.4c7.3,16.7,20.6,29.5,37.5,36.2C2150.5,310.7,2156.1,312.1,2161.8,312.8z
						"/>
				</g>
			</g>
		</g>
		<g>
			
				<linearGradient id="SVGID_5_" gradientUnits="userSpaceOnUse" x1="1326.4346" y1="-1454.4089" x2="1072.373" y2="-1063.7893" gradientTransform="matrix(-1 0 0 1 1553.6138 1450)">
				<stop  offset="0" style="stop-color:#A737D5"/>
				<stop  offset="1" style="stop-color:#EF497A"/>
			</linearGradient>
			<path class="st5" d="M365.6,446.2h168.8c12.9,0,23.4-10.5,23.4-23.4V253.6c0-12.2-9.4-22.3-21.5-23.3l-179.9-14.6
				c-14.2-1.1-26.1,10.5-25.2,24.7l11,183.8C343.1,436.6,353.3,446.2,365.6,446.2z"/>
			<path class="st2" d="M510.4,413.3c4.5,0,9-1.7,12.3-4.9c3.6-3.4,5.6-8.1,5.6-13V286.9c0-3.1-2.5-5.5-5.5-5.5s-5.5,2.5-5.5,5.5
				v108.5c0,1.9-0.8,3.6-2.1,4.9c-1.4,1.3-3.2,1.9-5.1,1.8l-128.6-7.7c-3.6-0.2-6.4-3.2-6.4-6.8V281.2c0-1.9,0.8-3.7,2.2-5
				c1.4-1.3,3.3-1.9,5.2-1.7l107,10.6c3.5,0.3,5,2.9,5.5,4s1.4,3.9-0.7,6.8l-40.8,56.3c-1.3,1.8-3.3,2.8-5.4,2.8c0,0,0,0-0.1,0
				c-2.2,0-4.1-1-5.4-2.7l-44.9-59.9c-1.8-2.4-5.3-2.9-7.8-1.1c-2.4,1.8-2.9,5.3-1.1,7.8l44.9,59.9c3.4,4.6,8.6,7.3,14.4,7.1
				c5.7,0,11-2.7,14.3-7.4l40.8-56.3c3.8-5.2,4.5-11.9,1.8-17.8s-8.1-9.8-14.5-10.5l-107-10.6c-5-0.5-10,1.2-13.8,4.5
				c-3.7,3.4-5.9,8.2-5.9,13.3v106.6c0,9.4,7.4,17.3,16.8,17.8l128.6,7.7C509.7,413.3,510.1,413.3,510.4,413.3z"/>
		</g>
		<g>
			<g>
				
					<linearGradient id="SVGID_6_" gradientUnits="userSpaceOnUse" x1="-170.8479" y1="692.2948" x2="-475.6731" y2="215.1781" gradientTransform="matrix(-0.9618 0.2737 0.2737 0.9618 1580.4084 1449.4657)">
					<stop  offset="0" style="stop-color:#FDF53F"/>
					<stop  offset="1" style="stop-color:#D93C65"/>
				</linearGradient>
				<path class="st6" d="M1925.5,1710.5c160.4-35.4,39.6-273.3,33.9-282.6l287.5,100.9c0,0,25.7,138.3-153.2,265.7
					c-45.3,32.2-91.1,46.1-134.2,48.9C1962.3,1788,1945.9,1743.6,1925.5,1710.5z"/>
				
					<linearGradient id="SVGID_7_" gradientUnits="userSpaceOnUse" x1="-269.2263" y1="365.2532" x2="163.16" y2="365.2532" gradientTransform="matrix(-0.9618 0.2737 0.2737 0.9618 1580.4084 1449.4657)">
					<stop  offset="0" style="stop-color:#F9B776"/>
					<stop  offset="1" style="stop-color:#F47960"/>
				</linearGradient>
				<path class="st7" d="M1598.9,1721.5c47.1-57.6,125.3-35.7,125.3-35.7c93.2,29,157.6,34.3,201.2,24.7
					c20.4,33.1,36.9,77.4,33.9,133c-93.4,6.1-174.5-39.7-211.2-64.6c-13.2-9-31.2-6-40.6,6.9c-9.5,13.1-17.6,29.8-11.5,43.1
					c12.1,26.3-17.3,44.1-22.6,34.8c-5.2-9.3-8.7-72.1-8.7-72.1s-45.5,82.2-63.4,113.9c-17.9,31.7-56.2,16-56.2,16
					S1551.8,1779.1,1598.9,1721.5z"/>
				
					<linearGradient id="SVGID_8_" gradientUnits="userSpaceOnUse" x1="-424.7536" y1="-354.5698" x2="-1396.62" y2="352.2426" gradientTransform="matrix(-0.9593 -0.2825 -0.2825 0.9593 1476.2412 1331.2115)">
					<stop  offset="0" style="stop-color:#FDF53F"/>
					<stop  offset="1" style="stop-color:#D93C65"/>
				</linearGradient>
				<path class="st8" d="M2565.3,1106c0,0-201.8-159-731.2,67.2c0,0-57.3,63.2-37.7,140.1c19.5,77,295.2,505.2,293.9,697.2
					c0,0,199.2,136.4,477,33.8C2567.2,2044.3,2692.2,1545.6,2565.3,1106z"/>
				
					<linearGradient id="SVGID_9_" gradientUnits="userSpaceOnUse" x1="-637.6926" y1="-474.8753" x2="-350.9153" y2="-474.8753" gradientTransform="matrix(-0.9593 -0.2825 -0.2825 0.9593 1476.2412 1331.2115)">
					<stop  offset="0" style="stop-color:#F9B776"/>
					<stop  offset="1" style="stop-color:#F47960"/>
				</linearGradient>
				<path class="st9" d="M2137,891l72.4,169.7c7.2,16.9,4.1,36.4-8.3,49.9c-25,27.3-75.8,62.8-156.2,32.1
					c-23.9-9.1-41.2-30.3-45.4-55.5l-30.8-186L2137,891z"/>
				
					<linearGradient id="SVGID_10_" gradientUnits="userSpaceOnUse" x1="-564.1125" y1="-546.1769" x2="-1535.9751" y2="160.633" gradientTransform="matrix(-0.9593 -0.2825 -0.2825 0.9593 1476.2412 1331.2115)">
					<stop  offset="0" style="stop-color:#FDF53F"/>
					<stop  offset="1" style="stop-color:#D93C65"/>
				</linearGradient>
				<path class="st10" d="M2570.3,1743.1c58.4-100.4-139.6-420.8-139.6-420.8l134.7-216.2c0,0,467.1,557.9,227.4,825.3
					c-34.4,38.3-71.7,61.3-110.6,72.5C2672.5,1864.2,2614.9,1784.5,2570.3,1743.1z"/>
				
					<linearGradient id="SVGID_11_" gradientUnits="userSpaceOnUse" x1="-1721.791" y1="-331.6081" x2="-896.0918" y2="106.648" gradientTransform="matrix(-1 0 0 1 1553.6138 1450)">
					<stop  offset="0" style="stop-color:#FDF53F"/>
					<stop  offset="1" style="stop-color:#D93C65"/>
				</linearGradient>
				<path class="st11" d="M2575.1,1742.9c2.9,0.8,6-0.3,7.6-3c59.7-102.6-131.5-414.4-139.7-427.6c-1.9-3.1-6-4.1-9.1-2.2
					s-4.1,6-2.2,9.1c2,3.2,195.3,318.2,139.5,414c-1.8,3.2-0.8,7.2,2.4,9.1C2574.1,1742.6,2574.6,1742.8,2575.1,1742.9z"/>
				
					<linearGradient id="SVGID_12_" gradientUnits="userSpaceOnUse" x1="-729.8492" y1="321.763" x2="-1827.7341" y2="2229.5645" gradientTransform="matrix(-0.9977 -6.820000e-02 -6.820000e-02 0.9977 1495.1451 1452.0475)">
					<stop  offset="0" style="stop-color:#F9B776"/>
					<stop  offset="1" style="stop-color:#F47960"/>
				</linearGradient>
				<path class="st12" d="M2100.6,1732c35.8,9.9,69.2,27.8,105.2,36.9c40,10.2,79.5,22.1,119.8,31.2
					c62.6,14.1,145.1,30.3,200.1-12.8c4.6-3.6,41.9-45.8,44.6-44.3c99.9,57.7,119.3,192.6,119.3,258
					c-182.1,99.6-468.5-94.3-545.7-151c-12.7-9.3-28.4-13.4-44-11.2c-31.5,4.3-85.9,10.1-114.6,3.7c-42-9.4-113.1,136-178.6,85.1
					C1806.6,1927.7,1883.2,1671.7,2100.6,1732z"/>
				<g>
					
						<linearGradient id="SVGID_13_" gradientUnits="userSpaceOnUse" x1="-391.7525" y1="-148.7526" x2="-745.4991" y2="121.9179" gradientTransform="matrix(-0.9938 0.1109 0.1109 0.9938 1530.4709 968.1957)">
						<stop  offset="0" style="stop-color:#F9B776"/>
						<stop  offset="1" style="stop-color:#F47960"/>
					</linearGradient>
					<path class="st13" d="M1902.3,651.1c0,0-45.7,148.1-41.6,222.7s-6.5,124.5,80.9,129.9c87.4,5.4,154.9-45.4,185.7-123.6
						c0,0,48.6-120.6,29.7-165.7C2138.1,669.3,1902.3,651.1,1902.3,651.1z"/>
					
						<linearGradient id="SVGID_14_" gradientUnits="userSpaceOnUse" x1="-640.2587" y1="-362.4174" x2="-319.9208" y2="50.0166" gradientTransform="matrix(-0.9938 0.1109 0.1109 0.9938 1530.4709 968.1957)">
						<stop  offset="0" style="stop-color:#2B3582"/>
						<stop  offset="1" style="stop-color:#150E42"/>
					</linearGradient>
					<path class="st14" d="M2092.2,830.3l-10.8,1.2c0,0,34.4-96.6-6.6-108.3s-200-26.1-239.7-77.5c-38.3-49.6-17.1-121.5,23.9-145.5
						c2.6-1.5,6-0.6,7.6,1.9l4.3,6.4c3,4.4,9.7,2.9,10.6-2.3c0.8-4.9,7.2-6.7,10.3-2.8c12.1,15.3,42.9,39.1,119,44.5
						c108,7.7,182.7,42.7,192.5,115.7c0.6,4.6,5.9,6.6,9.5,3.8c7.3-5.6,19.5-9.3,37.8,2.9c31.8,21.2,27,85.9-30.9,145.1
						c-2.7,2.8-2.2,7.5,1.3,9.3c12.4,6.2,31.6,22.2-10.3,51c-42.9,29.5-70.2,29.8-80.7,28.4c-2.8-0.4-4.9-2.7-5.1-5.5l-3.2-65.2
						c-0.2-3.4-3.1-5.9-6.5-5.5L2092.2,830.3z"/>
					
						<linearGradient id="SVGID_15_" gradientUnits="userSpaceOnUse" x1="-435.6471" y1="-206.1127" x2="-789.3936" y2="64.5574" gradientTransform="matrix(-0.9938 0.1109 0.1109 0.9938 1530.4709 968.1957)">
						<stop  offset="0" style="stop-color:#F9B776"/>
						<stop  offset="1" style="stop-color:#F47960"/>
					</linearGradient>
					<path class="st15" d="M2091,844.1c0,0,13.4-92.9,56.7-72.1c43.3,20.8-9.7,103.5-41.9,110.5L2091,844.1z"/>
				</g>
				
					<linearGradient id="SVGID_16_" gradientUnits="userSpaceOnUse" x1="20136.7441" y1="1305.4338" x2="19574.5293" y2="1459.5226" gradientTransform="matrix(1.053 -3.420000e-02 3.250000e-02 0.9995 -18885.0117 1213.6893)">
					<stop  offset="0" style="stop-color:#2B3582"/>
					<stop  offset="1" style="stop-color:#150E42"/>
				</linearGradient>
				<path class="st16" d="M2233.1,2013.4c-0.6,0-1.1,0-1.7,0l-735-11.4c-18.2-0.3-32.6-14.5-32.3-31.7c0.4-17.3,15.4-31.3,33.5-30.7
					l735,11.4c18.2,0.3,32.6,14.5,32.3,31.7C2264.6,1999.4,2250.5,2012.8,2233.1,2013.4z"/>
			</g>
			<g>
				<g>
					<g>
						
							<linearGradient id="SVGID_17_" gradientUnits="userSpaceOnUse" x1="-353.2271" y1="-1106.8555" x2="-55.1183" y2="-1308.9629" gradientTransform="matrix(-0.9856 -0.1691 -0.1691 0.9856 1698.3938 2071.3752)">
							<stop  offset="0" style="stop-color:#53D8FF"/>
							<stop  offset="1" style="stop-color:#3840F7"/>
						</linearGradient>
						<path class="st17" d="M1947,937.4c130.9,11.1,238.1-91.4,238.8-93v-23.1c-0.7,1.5-113.6,115.4-238.1,104.9L1947,937.4z"/>
					</g>
					
						<linearGradient id="SVGID_18_" gradientUnits="userSpaceOnUse" x1="-205.4407" y1="-831.2571" x2="-534.1648" y2="-216.6852" gradientTransform="matrix(-1 0 0 1 1553.6138 1450)">
						<stop  offset="0" style="stop-color:#53D8FF"/>
						<stop  offset="1" style="stop-color:#3840F7"/>
					</linearGradient>
					<path class="st18" d="M1893.6,931.7c0,8.7,6.3,15.8,14.1,15.8h37.5c7.8,0,14.1-7.1,14.1-15.8s-6.3-15.8-14.1-15.8h-37.5
						C1899.9,915.9,1893.6,923,1893.6,931.7z"/>
				</g>
				<g>
					
						<linearGradient id="SVGID_19_" gradientUnits="userSpaceOnUse" x1="299.9298" y1="-1567.9657" x2="-925.0902" y2="-1365.5714" gradientTransform="matrix(-0.9856 -0.1691 -0.1691 0.9856 1698.3938 2071.3752)">
						<stop  offset="0" style="stop-color:#53D8FF"/>
						<stop  offset="1" style="stop-color:#3840F7"/>
					</linearGradient>
					<path class="st19" d="M2118.9,705c0,0,29.9-159.6-154.6-160.5c-2.6,0-3-3.7-0.5-4.2c50.5-11.6,197.2-28.9,199.4,162.6
						C2135.2,713,2118.9,705,2118.9,705z"/>
					
						<linearGradient id="SVGID_20_" gradientUnits="userSpaceOnUse" x1="29.8983" y1="-1371.1815" x2="-737.6608" y2="-1244.3676" gradientTransform="matrix(-0.9856 -0.1691 -0.1691 0.9856 1698.3938 2071.3752)">
						<stop  offset="0" style="stop-color:#53D8FF"/>
						<stop  offset="1" style="stop-color:#3840F7"/>
					</linearGradient>
					<path class="st20" d="M2152.7,685.5c72,14.6,63.1,105.6,63.1,105.6c5.2,66.1-14.1,98.8-38.8,114.4c-16.9,10.7-38.1,11.6-56,2.7
						c-17.8-9-29.6-26.7-31.1-46.6c-1.3-18-2.9-35.1-4.2-41.1C2082.6,805.8,2080.8,670.9,2152.7,685.5z"/>
				</g>
				
					<linearGradient id="SVGID_21_" gradientUnits="userSpaceOnUse" x1="-151.5585" y1="-1329.7722" x2="248.9064" y2="-1336.4465" gradientTransform="matrix(-0.9856 -0.1691 -0.1691 0.9856 1698.3938 2071.3752)">
					<stop  offset="0" style="stop-color:#53D8FF"/>
					<stop  offset="1" style="stop-color:#3840F7"/>
				</linearGradient>
				<path class="st21" d="M2146.1,708.6c14.9-2.6,29.7,5.3,35.7,19.3c43,99.7-9.8,164.5-35.7,165.9c-27.3,1.4-26.8-130.1-21-163.8
					C2127.5,715.8,2136.5,710.2,2146.1,708.6z"/>
			</g>
		</g>
		<g>
			
				<linearGradient id="SVGID_22_" gradientUnits="userSpaceOnUse" x1="-465.4433" y1="952.0515" x2="-432.0937" y2="218.3712" gradientTransform="matrix(-1 0 0 1 1553.6138 1450)">
				<stop  offset="0" style="stop-color:#2B3582"/>
				<stop  offset="1" style="stop-color:#150E42"/>
			</linearGradient>
			<path class="st22" d="M3299.7,2043.6c1.4-9.1-0.5-18.5-5.3-25.6s-11.9-11.3-19.4-11.3H734c-9.9,0-19,6.2-24.4,16.4
				c-5.3,10.2-6,23.1-1.9,34.2l27.5,73.5c6.3,16.8,20,27.6,35,27.6h2487.3c14,0,26-12.2,28.7-29.1L3299.7,2043.6z"/>
			<path class="st2" d="M770.3,2160h2487.3c14.7,0,27.5-12.8,30.2-30.5l13.4-85.6c1.5-9.5-0.5-19.2-5.5-26.7
				c-5.1-7.6-12.6-12-20.7-12H734c-10.5,0-20.2,6.5-25.8,17.3c-5.5,10.7-6.3,23.9-2,35.4l27.5,73.5
				C740.3,2148.8,754.7,2160,770.3,2160z M3298.2,2043.4l-13.4,85.6c-2.5,16.1-13.9,27.8-27.1,27.8H770.3
				c-14.3,0-27.5-10.4-33.5-26.6l-27.5-73.5c-4-10.7-3.3-23,1.8-32.9c5.1-9.8,13.6-15.6,23-15.6h2541.1c7,0,13.6,3.8,18.1,10.6
				C3297.7,2025.7,3299.5,2034.7,3298.2,2043.4z"/>
		</g>
		<g>
			<g>
				
					<linearGradient id="SVGID_23_" gradientUnits="userSpaceOnUse" x1="377.0749" y1="-416.4094" x2="663.0503" y2="314.868" gradientTransform="matrix(-1 0 0 1 1553.6138 1450)">
					<stop  offset="0" style="stop-color:#2B3582"/>
					<stop  offset="1" style="stop-color:#150E42"/>
				</linearGradient>
				<path class="st23" d="M1617.8,960.8c15.8,0.9,28.6,12.9,30.5,28.6c15,122.4,82.3,619.5,101.6,761.5c2.7,20-13.2,37.5-33.3,37
					l-1142.8-32.7c-15-0.4-27.7-11-30.9-25.6L365.1,929.1c-4.7-21.2,12.1-41,33.8-39.7L1617.8,960.8z"/>
				<path class="st2" d="M1717.6,1789.5c9.7,0,19-4.1,25.5-11.4c6.7-7.5,9.8-17.5,8.4-27.4c-20.1-147.8-86.7-639.5-101.6-761.5
					c-2-16.4-15.5-29-32-30L399,887.8c-10.8-0.6-21.1,3.7-28.1,12s-9.7,19-7.4,29.6L541.3,1730c3.4,15.3,16.8,26.4,32.5,26.8
					l1142.8,32.7C1716.9,1789.5,1717.2,1789.5,1717.6,1789.5z M397,890.9c0.6,0,1.2,0,1.9,0.1l1218.9,71.4c15,0.9,27.2,12.3,29,27.2
					c14.9,122,81.6,613.8,101.6,761.6c1.2,9-1.6,18.1-7.7,24.9s-14.9,10.5-24,10.3l-1142.8-32.7c-14.2-0.4-26.4-10.4-29.4-24.3
					L366.7,928.7c-2.1-9.6,0.3-19.4,6.7-26.9C379.3,894.8,387.8,890.9,397,890.9z"/>
			</g>
			<g>
				
					<linearGradient id="SVGID_24_" gradientUnits="userSpaceOnUse" x1="342.6342" y1="-125.6784" x2="506.0488" y2="879.3179" gradientTransform="matrix(-1 0 0 1 1553.6138 1450)">
					<stop  offset="0" style="stop-color:#2B3582"/>
					<stop  offset="1" style="stop-color:#150E42"/>
				</linearGradient>
				<path class="st24" d="M1188.9,1491.4l168.9,479.4l-392.7,8.3l-32.7-484.8c-1.5-22.8,17.3-41.6,40.1-40.1l183.4,12.2
					C1170.9,1467.3,1183.9,1477.2,1188.9,1491.4z"/>
				<path class="st2" d="M963.6,1980.7l396.4-8.4l-169.6-481.4l-1.5,0.5l1.5-0.5c-5.2-14.8-18.7-25.1-34.4-26.1l-183.4-12.2
					c-11.3-0.8-22.4,3.4-30.4,11.4s-12.2,19.1-11.4,30.4L963.6,1980.7z M1355.6,1969.2l-389,8.2L934,1494.2
					c-0.7-10.4,3.1-20.6,10.5-27.9c7.4-7.4,17.5-11.2,27.9-10.5l183.4,12.2c14.4,1,26.8,10.4,31.6,24L1355.6,1969.2z"/>
			</g>
			<g>
				
					<linearGradient id="SVGID_25_" gradientUnits="userSpaceOnUse" x1="269.0266" y1="458.9464" x2="751.0985" y2="774.8799" gradientTransform="matrix(-1 0 0 1 1553.6138 1450)">
					<stop  offset="0" style="stop-color:#2B3582"/>
					<stop  offset="1" style="stop-color:#150E42"/>
				</linearGradient>
				<path class="st25" d="M1517.1,1977.6c4.3,13.2-5.5,26.8-19.4,26.8h-615c-11.3,0-20.4-9.1-20.4-20.4v-26.4
					c0-11.6,9.7-20.9,21.3-20.4l615,26.4C1507,1964,1514.4,1969.6,1517.1,1977.6z"/>
				<path class="st2" d="M882.7,2006h615c7.1,0,13.6-3.3,17.8-9.1c4.2-5.8,5.3-13,3.1-19.8c-2.8-8.6-10.9-14.7-19.9-15.1l-615-26.4
					c-6-0.3-11.8,1.9-16.2,6.1s-6.8,9.8-6.8,15.9v26.4C860.7,1996.1,870.5,2006,882.7,2006z M1515.5,1978.1c1.9,5.8,0.9,12-2.6,16.9
					c-3.6,4.9-9.1,7.8-15.2,7.8h-615c-10.4,0-18.8-8.4-18.8-18.8v-26.4c0-5.2,2.1-10,5.8-13.6s8.6-5.4,13.8-5.2l615,26.4
					C1506.3,1965.5,1513.1,1970.7,1515.5,1978.1z"/>
			</g>
			<path class="st2" d="M1665.6,1495.1l8.1-1l-56.2-442.8c-3.5-27.5-26.1-48.6-53.7-50.3L510.5,937.4l-0.5,8.2l1053.3,63.6
				c23.7,1.4,43.1,19.6,46.1,43.1L1665.6,1495.1z"/>
			
				<rect x="1687.5" y="1620.2" transform="matrix(0.9921 -0.1251 0.1251 0.9921 -195.4525 224.7402)" class="st2" width="8.2" height="96.6"/>
		</g>
		<g>
			<g>
				
					<linearGradient id="SVGID_26_" gradientUnits="userSpaceOnUse" x1="480.0186" y1="-1019.7972" x2="26.8183" y2="-415.5307" gradientTransform="matrix(-1 0 0 1 1553.6138 1450)">
					<stop  offset="0" style="stop-color:#53D8FF"/>
					<stop  offset="1" style="stop-color:#3840F7"/>
				</linearGradient>
				<path class="st26" d="M1165.1,799.9h189.6c14.5,0,26.2-11.8,26.2-26.2V583.6c0-13.7-10.5-25.1-24.1-26.2l-202-16.3
					c-15.9-1.3-29.3,11.8-28.3,27.7l12.4,206.4C1139.8,789.1,1151.3,799.9,1165.1,799.9z"/>
			</g>
			<g>
				<g>
					<g>
						<g>
							<path class="st2" d="M1243,691.5c0,15.2,1.1,30.5,3.7,45.4c0.7,3.7,1.5,7.5,2.4,11.2s2,7.3,3.3,10.9c1.3,3.6,2.9,7.1,5,10.3
								c1.1,1.6,2.3,3.1,3.7,4.4c0.7,0.6,1.6,1.2,2.4,1.6c0.9,0.4,1.9,0.7,2.9,0.7s2-0.2,2.9-0.5c0.9-0.4,1.7-0.9,2.5-1.5
								c1.5-1.2,2.7-2.7,3.8-4.3c2.1-3.2,3.7-6.7,5.1-10.3c1.3-3.6,2.4-7.2,3.4-10.9c0.9-3.7,1.7-7.4,2.4-11.2
								c1.4-7.5,2.3-15.1,2.9-22.6c0.6-7.6,0.9-15.2,1-22.8c0-3.8-0.1-7.6-0.2-11.4c-0.1-3.8-0.4-7.6-0.6-11.4
								c-0.6-7.6-1.4-15.2-2.6-22.7c-0.6-3.8-1.4-7.5-2.2-11.2c-0.9-3.7-1.9-7.4-3.2-11c-0.6-1.8-1.3-3.6-2.1-5.3
								c-0.8-1.7-1.7-3.4-2.7-5s-2.2-3.1-3.7-4.3c-0.7-0.6-1.6-1.1-2.5-1.5s-1.9-0.5-2.8-0.5c-1,0-1.9,0.3-2.8,0.7s-1.7,0.9-2.4,1.5
								c-1.5,1.2-2.7,2.7-3.8,4.3c-2.2,3.1-3.8,6.6-5.2,10.1c-1.4,3.5-2.6,7.2-3.6,10.8c-1,3.7-1.9,7.4-2.6,11.1
								C1244.3,661,1243.1,676.3,1243,691.5z M1244.2,691.5c0-7.6,0.3-15.2,0.9-22.7c0.6-7.6,1.6-15.1,3-22.5
								c0.7-3.7,1.5-7.4,2.5-11.1c1-3.7,2.1-7.3,3.5-10.8s3-7,5.1-10.1c1.1-1.6,2.3-3,3.7-4.2c0.7-0.6,1.5-1.1,2.3-1.5
								s1.8-0.6,2.7-0.7c0.9,0,1.8,0.2,2.7,0.5c0.9,0.3,1.6,0.9,2.4,1.5c1.4,1.2,2.6,2.7,3.6,4.3s1.9,3.3,2.6,5
								c0.8,1.7,1.4,3.5,2,5.3c1.2,3.6,2.2,7.2,3,10.9s1.5,7.4,2.1,11.2c1.2,7.5,1.9,15,2.4,22.6s0.6,15.1,0.6,22.7
								c0,7.6-0.2,15.2-0.8,22.7c-0.6,7.6-1.4,15.1-2.7,22.6c-0.6,3.7-1.4,7.4-2.3,11.1c-0.9,3.7-2,7.3-3.3,10.9
								c-1.3,3.5-2.8,7-4.9,10.2c-1,1.6-2.2,3-3.7,4.2c-0.7,0.6-1.5,1.1-2.3,1.4c-0.8,0.3-1.7,0.5-2.6,0.5s-1.8-0.3-2.6-0.6
								c-0.8-0.4-1.6-0.9-2.3-1.5c-1.4-1.2-2.6-2.7-3.6-4.3c-2-3.2-3.5-6.6-4.8-10.2c-1.3-3.6-2.3-7.2-3.2-10.9
								c-0.9-3.7-1.6-7.4-2.3-11.1c-1.3-7.5-2.1-15-2.7-22.6C1244.4,706.6,1244.2,699.1,1244.2,691.5z"/>
						</g>
						<g>
							<path class="st2" d="M1266.8,778.2c1.2,0,2.4-0.2,3.5-0.7c1-0.4,2-1,3.1-1.8c1.5-1.2,2.9-2.7,4.3-4.8
								c1.9-2.9,3.6-6.3,5.3-10.7c1.3-3.4,2.4-7,3.5-11.2c0.9-3.6,1.7-7.3,2.5-11.3c1.3-7.2,2.3-14.7,2.9-22.9
								c0.6-7.4,0.9-15.2,1-23c0-4.1-0.1-8.1-0.2-11.5c-0.1-3.9-0.4-7.7-0.6-11.5c-0.6-8.2-1.5-15.7-2.7-22.9
								c-0.7-4.1-1.4-7.8-2.3-11.3c-1-4.2-2-7.8-3.2-11.2c-0.7-2-1.4-3.8-2.2-5.5c-0.9-2-1.9-3.8-2.9-5.3c-1.4-2.1-2.7-3.6-4.2-4.8
								c-1-0.8-2-1.4-3.1-1.8c-1.2-0.5-2.5-0.7-3.7-0.7s-2.4,0.3-3.6,0.8c-1,0.4-2,1-2.9,1.8c-1.5,1.2-2.8,2.7-4.2,4.7
								c-2,2.9-3.7,6.2-5.5,10.6c-1.3,3.4-2.5,7-3.7,11.1c-1,3.6-1.8,7.3-2.6,11.3c-2.8,14.2-4.2,29.2-4.2,45.8
								c0,16.7,1.3,31.7,3.8,45.8c0.7,4.1,1.5,7.8,2.4,11.3c1,4.1,2.2,7.8,3.4,11.2c1.7,4.4,3.3,7.8,5.2,10.7
								c1.4,2.1,2.7,3.6,4.2,4.9c1,0.8,2,1.5,3,1.9c1.2,0.6,2.5,0.9,3.7,0.9C1266.6,778.2,1266.7,778.2,1266.8,778.2z M1267.9,610.1
								c0.6,0,1.1,0.1,1.7,0.3s1.2,0.6,1.8,1.1c1.1,0.9,2.1,2.1,3.2,3.8c0.9,1.4,1.7,2.9,2.5,4.7c0.7,1.5,1.3,3.2,2,5.1
								c1.1,3.2,2.1,6.7,3,10.7c0.8,3.5,1.5,7.1,2.1,11c1.1,7,1.9,14.3,2.4,22.4c0.4,6.9,0.6,14.3,0.6,22.6c0,7.7-0.2,15.2-0.8,22.6
								c-0.6,8-1.5,15.3-2.7,22.3c-0.7,3.9-1.4,7.5-2.3,11c-1,4-2,7.4-3.2,10.6c-1.5,4-3,7.1-4.7,9.7c-1.1,1.6-2.1,2.8-3.2,3.7
								c-0.6,0.5-1.2,0.9-1.8,1.1c-0.6,0.2-1.2,0.3-1.7,0.3c-0.6,0-1.2-0.2-1.8-0.4c-0.6-0.3-1.2-0.7-1.8-1.2
								c-1.1-0.9-2.1-2.1-3.2-3.8c-1.7-2.6-3.1-5.7-4.6-9.7c-1.2-3.2-2.2-6.7-3.2-10.6c-0.8-3.4-1.6-7-2.3-11
								c-1.2-7-2.1-14.3-2.7-22.3c-0.6-7.3-0.8-14.9-0.8-22.6c0-7.6,0.3-15.2,0.9-22.5c0.7-8,1.6-15.3,2.9-22.3
								c0.7-3.9,1.5-7.5,2.4-10.9c1-3.9,2.1-7.4,3.4-10.6c1.6-4,3.1-7.1,4.8-9.7c1.1-1.6,2.2-2.8,3.3-3.8c0.6-0.5,1.2-0.9,1.8-1.2
								c0.6-0.3,1.2-0.4,1.8-0.5C1267.8,610.1,1267.9,610.1,1267.9,610.1z"/>
						</g>
					</g>
					<g>
						<g>
							<path class="st2" d="M1204.8,691.5c0.1,9.8,1.3,19.6,3.9,29c2.7,9.4,6.7,18.5,12.1,26.6c2.7,4.1,5.8,7.9,9.2,11.4
								c3.4,3.5,7.2,6.6,11.4,9.2c4.1,2.6,8.6,4.7,13.3,6.1c4.7,1.4,9.6,2.2,14.4,2.2c4.9,0,9.8-0.7,14.4-2.1
								c4.7-1.4,9.1-3.5,13.3-6.1c4.1-2.6,7.9-5.7,11.4-9.2c3.4-3.5,6.5-7.3,9.3-11.4c5.4-8.1,9.5-17.2,12.1-26.6
								c1.3-4.7,2.3-9.5,2.9-14.4s1-9.8,1-14.7s-0.4-9.8-1-14.7c-0.7-4.9-1.6-9.7-2.9-14.4c-2.7-9.4-6.7-18.5-12.2-26.6
								c-2.7-4.1-5.8-7.9-9.3-11.3c-3.4-3.5-7.3-6.6-11.4-9.2c-4.1-2.6-8.6-4.7-13.3-6.1c-4.7-1.4-9.5-2.2-14.4-2.2
								s-9.7,0.8-14.4,2.2c-4.7,1.4-9.1,3.5-13.3,6.1c-4.1,2.6-7.9,5.7-11.4,9.2c-3.4,3.5-6.5,7.3-9.2,11.4
								c-5.4,8.1-9.5,17.2-12.1,26.6C1206.1,671.9,1204.9,681.7,1204.8,691.5z M1206.1,691.5c0-9.7,1.2-19.4,3.8-28.7
								c2.6-9.3,6.4-18.3,11.7-26.4c2.7-4,5.7-7.9,9-11.3c3.4-3.5,7.1-6.6,11.2-9.2c4.1-2.6,8.5-4.7,13.1-6.1
								c4.6-1.4,9.4-2.2,14.3-2.2c4.8,0,9.7,0.8,14.3,2.2c4.6,1.4,9,3.5,13.1,6.1s7.8,5.7,11.2,9.2c3.4,3.5,6.4,7.3,9,11.3
								c5.3,8.1,9.1,17.1,11.7,26.4c1.3,4.7,2.2,9.4,2.8,14.2c0.6,4.8,0.9,9.6,0.9,14.5c0,4.8-0.3,9.7-1,14.5
								c-0.6,4.8-1.5,9.6-2.8,14.2c-2.6,9.3-6.4,18.3-11.7,26.4c-2.6,4-5.7,7.9-9,11.3c-3.4,3.5-7.1,6.6-11.2,9.2
								c-4.1,2.6-8.5,4.7-13.1,6.1c-4.6,1.4-9.4,2.2-14.2,2.2c-4.8,0-9.6-0.8-14.2-2.2s-9-3.5-13.1-6.1s-7.8-5.7-11.2-9.2
								c-3.4-3.5-6.4-7.3-9-11.3c-5.3-8.1-9.2-17.1-11.7-26.4C1207.3,710.8,1206.1,701.2,1206.1,691.5z"/>
						</g>
						<g>
							<path class="st2" d="M1269.2,778.2c5.1,0,10.1-0.8,15.1-2.2c4.8-1.4,9.4-3.6,13.8-6.3c4.2-2.6,8.1-5.8,11.8-9.5
								c3.4-3.5,6.7-7.4,9.5-11.7c5.4-8.1,9.6-17.3,12.4-27.3c1.3-4.8,2.3-9.7,3-14.7c0.6-4.9,1-9.9,1-14.9c0-5.1-0.4-10.1-1-15
								c-0.7-5-1.7-9.9-3-14.7c-2.8-10-7-19.2-12.4-27.3c-2.9-4.3-6.1-8.2-9.5-11.7c-3.7-3.7-7.6-6.9-11.8-9.5
								c-4.4-2.7-9-4.9-13.8-6.3c-4.9-1.5-10-2.2-15-2.2c-5.1,0-10.1,0.8-15.1,2.3c-4.8,1.4-9.4,3.6-13.8,6.3
								c-4.2,2.6-8.1,5.8-11.8,9.5c-3.4,3.5-6.7,7.4-9.5,11.7c-5.4,8.1-9.6,17.2-12.4,27.2c-2.6,9.4-4,19.4-4,29.6l0,0
								c0.1,10.3,1.4,20.2,4,29.6c2.8,10,7,19.2,12.4,27.3c2.9,4.3,6.1,8.2,9.5,11.7c3.7,3.7,7.6,6.9,11.8,9.5
								c4.4,2.8,9.1,4.9,13.8,6.3C1259,777.4,1264.1,778.2,1269.2,778.2z M1269.2,609.7c4.6,0,9.2,0.7,13.6,2.1
								c4.3,1.3,8.5,3.3,12.6,5.8c3.7,2.4,7.4,5.4,10.8,8.9c3.2,3.3,6.1,7,8.8,11c5,7.6,8.8,16.3,11.4,25.8
								c1.2,4.4,2.1,9.1,2.8,13.9c0.6,4.6,0.9,9.4,0.9,14.2s-0.3,9.6-0.9,14.2c-0.6,4.8-1.6,9.5-2.8,13.9
								c-2.6,9.5-6.4,18.2-11.4,25.8c-2.6,4-5.6,7.7-8.8,11c-3.4,3.5-7,6.5-10.8,8.9c-4,2.5-8.2,4.5-12.5,5.8
								c-4.4,1.4-9,2.1-13.6,2.1s-9.1-0.7-13.6-2.1c-4.3-1.3-8.6-3.3-12.6-5.8c-3.7-2.4-7.4-5.4-10.8-8.9c-3.2-3.3-6.1-7-8.8-11
								c-5-7.6-8.8-16.3-11.4-25.8c-2.4-8.9-3.7-18.4-3.7-28.1c0-9.7,1.3-19.2,3.7-28.1c2.6-9.5,6.5-18.2,11.4-25.8
								c2.6-4,5.6-7.7,8.8-11c3.4-3.5,7-6.5,10.8-8.9c4-2.6,8.3-4.5,12.6-5.8C1260,610.4,1264.6,609.8,1269.2,609.7z"/>
						</g>
					</g>
					<g>
						<g>
							<path class="st2" d="M1344.3,658l-19.3-0.2l-19.3-0.1l-38.7-0.1l-38.7,0.1l-19.3,0.1l-19.3,0.2c0,0-0.1,0-0.1,0.1
								c0,0,0,0.1,0.1,0.1l19.3,0.2l19.3,0.1l38.7,0.1l38.7-0.1l19.3-0.1l19.3-0.2h0.1C1344.3,658.1,1344.3,658,1344.3,658z"/>
						</g>
						<g>
							<polygon class="st2" points="1267,660.7 1324.9,660.6 1345.2,660.4 1346.6,659.1 1346.6,658.1 1346.5,655.9 1344.3,655.8 
								1305.6,655.6 1267,655.5 1209,655.7 1187.4,655.9 1187.4,660.3 1189.7,660.4 1228.3,660.7 							"/>
						</g>
					</g>
					<g>
						<g>
							<path class="st2" d="M1321.8,625.5c-4.6-0.1-9.1-0.1-13.7-0.2l-13.7-0.1c-4.6,0-9.1,0-13.7,0H1267l-27.4,0.1l-13.7,0.1
								c-4.6,0.1-9.1,0.1-13.7,0.2h-0.1c0,0.1,0,0.1,0.1,0.1c4.6,0.1,9.1,0.1,13.7,0.2l13.7,0.1l27.4,0.1h13.7c4.6,0,9.1,0,13.7,0
								l13.7-0.1c4.6-0.1,9.1-0.1,13.7-0.2C1321.9,625.7,1321.9,625.7,1321.8,625.5C1321.9,625.6,1321.9,625.5,1321.8,625.5z"/>
						</g>
						<g>
							<path class="st2" d="M1266.9,628.3h17.3c3.4,0,6.8,0,10.2,0l18.3-0.1c3.1,0,6.1-0.1,9.2-0.1h2.2l0.1-4.5l-2.3-0.1
								c-3,0-5.9-0.1-8.9-0.1l-18.6-0.1c-3.2,0-6.4,0-9.7,0h-17.8l-46.2,0.2c-2.9,0-5.8,0.1-8.7,0.1h-2.2l0.1,4.5l2.2,0.1
								c3,0.1,6.1,0.1,9.1,0.1l18.3,0.1L1266.9,628.3z"/>
						</g>
					</g>
					<g>
						<g>
							<path class="st2" d="M1351,690.5l-21-0.2l-21-0.1l-42-0.1l-42,0.1l-21,0.1l-21,0.2c0,0-0.1,0-0.1,0.1c0,0,0,0.1,0.1,0.1
								l21,0.2l21,0.1l42,0.1l42-0.1l21-0.1l21-0.2C1351,690.7,1351.1,690.7,1351,690.5C1351.1,690.6,1351,690.5,1351,690.5z"/>
						</g>
						<g>
							<polygon class="st2" points="1267,693.2 1330,693.1 1353.2,692.9 1353.3,688.4 1351,688.3 1309,688.1 1267,688 1203.9,688.2 
								1182,688.4 1180.7,689.7 1180.7,692.8 1182.9,692.9 1224.9,693.2 							"/>
						</g>
					</g>
					<g>
						<g>
							<path class="st2" d="M1344.3,723l-19.3-0.2l-19.3-0.1l-38.7-0.1l-38.7,0.1l-19.3,0.1l-19.3,0.2h-0.1c0,0.1,0,0.1,0.1,0.1
								l19.3,0.2l19.3,0.1l38.7,0.1l38.7-0.1l19.3-0.1L1344.3,723C1344.3,723.2,1344.3,723.2,1344.3,723
								C1344.3,723.1,1344.3,723,1344.3,723z"/>
						</g>
						<g>
							<polygon class="st2" points="1267,725.7 1324.9,725.6 1345.2,725.4 1346.6,724.1 1346.6,723.1 1346.5,720.9 1344.3,720.8 
								1305.6,720.6 1267,720.5 1209,720.7 1187.4,720.9 1187.4,725.3 1189.7,725.4 1228.3,725.7 							"/>
						</g>
					</g>
					<g>
						<g>
							<path class="st2" d="M1209.3,755.9h109.8c0.2,0,0.3-0.1,0.3-0.3s-0.1-0.3-0.3-0.3h-109.8c-0.2,0-0.3,0.1-0.3,0.3
								S1209.1,755.9,1209.3,755.9z"/>
						</g>
						<g>
							<path class="st2" d="M1209.3,758.1h109.8c1.4,0,2.5-1.1,2.5-2.5s-1.1-2.5-2.5-2.5h-109.8c-1.4,0-2.5,1.1-2.5,2.5
								S1207.9,758.1,1209.3,758.1z"/>
						</g>
					</g>
				</g>
				<g>
					<path class="st2" d="M1267,779.9c49.8,0,90.3-40.1,90.3-89.3s-40.5-89.3-90.3-89.3s-90.3,40.1-90.3,89.3
						C1176.7,739.9,1217.2,779.9,1267,779.9z M1267,609.3c45.4,0,82.3,36.5,82.3,81.4s-36.9,81.4-82.3,81.4s-82.3-36.5-82.3-81.4
						C1184.6,645.8,1221.6,609.3,1267,609.3z"/>
				</g>
			</g>
			<g>
				<path class="st2" d="M1180.2,618.4h25.9v-6.7l-8.6-12.2c-2.4-3.4-4-5.8-4.9-7.5c-0.9-1.6-1.5-3.2-2-4.7c-0.4-1.5-0.6-3-0.6-4.6
					c0-1.9,0.4-3.2,1.2-4.2c0.8-0.9,1.9-1.4,3.2-1.4c1.2,0,2.3,0.3,3.3,0.9c1,0.6,2.2,1.7,3.7,3.3l5-5.3c-2.3-2.6-4.5-4.4-6.4-5.4
					c-2-1-4.1-1.5-6.4-1.5c-3.9,0-6.9,1.1-9.1,3.4c-2.2,2.3-3.3,5.5-3.3,9.6c0,1.9,0.2,3.6,0.6,5.3s1,3.3,1.8,5s1.8,3.4,3,5.2
					s4.3,5.9,9.4,12.3v0.3h-15.8L1180.2,618.4L1180.2,618.4z"/>
				<path class="st2" d="M1146.9,608.2h4.9v10.1h8.5v-10.1h15.8v-7.3l-14.6-30.9h-9.6v30.7h-4.9v7.5H1146.9z M1160.2,600.8v-10.2
					l-0.2-4.5l-0.2-4.3h0.3c0.8,2.4,1.6,4.6,2.5,6.5l5.8,12.5H1160.2z"/>
			</g>
		</g>
		<g>
			
				<linearGradient id="SVGID_27_" gradientUnits="userSpaceOnUse" x1="784.8209" y1="-1638.5576" x2="379.8444" y2="-1049.501" gradientTransform="matrix(-1 0 0 1 1553.6138 1450)">
				<stop  offset="0" style="stop-color:#A737D5"/>
				<stop  offset="1" style="stop-color:#EF497A"/>
			</linearGradient>
			<path class="st27" d="M1221.1,199.3v153.2c0,18.2-14.3,33.2-32.5,34.1l-191.6,9c-19.4,0.9-35.7-14.6-35.7-34.1V199.3
				c0-18.8,15.3-34.1,34.1-34.1H1187C1205.8,165.2,1221.1,180.4,1221.1,199.3z"/>
			<g>
				<g>
					<g>
						<g>
							<g>
								<g>
									<path class="st2" d="M1147.9,240.5l7.5-27.7l21.8-11.9l2.9,5.3l-19.5,10.5l-23.3,85.3l-0.7,2.5h-95
										c-9.3,0-17.8-4.5-22.8-12.3l-4.3-5.6c-4.6-7.1-7.6-15.3-7.6-23.7v-22.6h141L1147.9,240.5L1147.9,240.5z M1013.9,263.1
										c0,7.3,2.3,14.3,6.2,20.5l3.8,6.3c3.9,6,10.6,10.3,17.8,10.3h90.3l4.9-18.2l9.4-34.5h-132.4L1013.9,263.1L1013.9,263.1z"/>
								</g>
								<g>
									<path class="st2" d="M1019.8,335.7c0,1.7,1.4,3.4,3.1,3.4h111.4c1.7,0,3.4-2.6,3.4-4.3v-52.5c0-0.6-0.3-0.5-0.6-0.9
										l-5.1,18.8h-1.1v32.1h-108C1021.2,332.2,1019.8,334,1019.8,335.7z"/>
								</g>
							</g>
							<g>
								<rect x="1077.6" y="243.5" class="st2" width="4.1" height="57.2"/>
								<g>
									<rect x="1113.5" y="243.5" class="st2" width="4.1" height="57.2"/>
									<rect x="1042.5" y="243.5" class="st2" width="4.1" height="57.2"/>
								</g>
							</g>
							<g>
								<rect x="1012.4" y="260.4" class="st2" width="132.3" height="3.6"/>
								<rect x="1015.8" y="280.3" class="st2" width="123.2" height="3.6"/>
							</g>
						</g>
						<path class="st2" d="M1120,343c7.3,0,13.1,5.9,13.1,13.1c0,7.3-5.9,13.1-13.1,13.1c-7.3,0-13.1-5.9-13.1-13.1
							S1112.8,343,1120,343z M1120,364.1c4.4,0,7.9-3.6,7.9-7.9c0-4.4-3.6-7.9-7.9-7.9c-4.4,0-7.9,3.6-7.9,7.9
							S1115.7,364.1,1120,364.1z"/>
						<path class="st2" d="M1038.4,343c7.3,0,13.1,5.9,13.1,13.1c0,7.3-5.9,13.1-13.1,13.1c-7.3,0-13.1-5.9-13.1-13.1
							C1025.2,348.9,1031.1,343,1038.4,343z M1038.4,364.1c4.4,0,7.9-3.6,7.9-7.9c0-4.4-3.6-7.9-7.9-7.9s-7.9,3.6-7.9,7.9
							S1034,364.1,1038.4,364.1z"/>
					</g>
					<path class="st2" d="M1163.7,206.3c0,3.4,2.8,6.2,6.2,6.2h20.5c3.4,0,6.2-2.8,6.2-6.2s-2.8-6.2-6.2-6.2h-20.5
						C1166.5,200.1,1163.7,202.8,1163.7,206.3z"/>
				</g>
			</g>
		</g>
		<g>
			
				<linearGradient id="SVGID_28_" gradientUnits="userSpaceOnUse" x1="162.0838" y1="-1524.2814" x2="-98.3288" y2="-952.6441" gradientTransform="matrix(-1 0 0 1 1553.6138 1450)">
				<stop  offset="0" style="stop-color:#A737D5"/>
				<stop  offset="1" style="stop-color:#EF497A"/>
			</linearGradient>
			<path class="st28" d="M1708.8,699.3c0,0-374.4-185-252-321.2s350.7-81.8,362.3,61.6C1830.7,583.1,1552.8,549.4,1708.8,699.3z"/>
			<g>
				<path class="st2" d="M1488.5,415.8h165.2c1.4,0,2.5-1.1,2.5-2.5s-1.1-2.5-2.5-2.5h-165.2c-1.4,0-2.5,1.1-2.5,2.5
					C1486,414.7,1487.1,415.8,1488.5,415.8z"/>
				<path class="st2" d="M1702.8,415.8h49c1.4,0,2.5-1.1,2.5-2.5s-1.1-2.5-2.5-2.5h-49c-1.4,0-2.5,1.1-2.5,2.5
					C1700.3,414.7,1701.4,415.8,1702.8,415.8z"/>
				<path class="st2" d="M1482.9,449.3h62c1.4,0,2.5-1.1,2.5-2.5s-1.1-2.5-2.5-2.5h-62c-1.4,0-2.5,1.1-2.5,2.5
					C1480.4,448.1,1481.5,449.3,1482.9,449.3z"/>
				<path class="st2" d="M1636,449.3h110.2c1.4,0,2.5-1.1,2.5-2.5s-1.1-2.5-2.5-2.5H1636c-1.4,0-2.5,1.1-2.5,2.5
					C1633.5,448.1,1634.6,449.3,1636,449.3z"/>
				<path class="st2" d="M1477.3,482.7h164.9c1.4,0,2.5-1.1,2.5-2.5s-1.1-2.5-2.5-2.5h-164.9c-1.4,0-2.5,1.1-2.5,2.5
					S1476,482.7,1477.3,482.7z"/>
				<path class="st2" d="M1683.6,482.7h57.1c1.4,0,2.5-1.1,2.5-2.5s-1.1-2.5-2.5-2.5h-57.1c-1.4,0-2.5,1.1-2.5,2.5
					S1682.2,482.7,1683.6,482.7z"/>
			</g>
		</g>
		<g>
			
				<linearGradient id="SVGID_29_" gradientUnits="userSpaceOnUse" x1="941.1848" y1="-1292.1477" x2="426.7107" y2="-288.6045" gradientTransform="matrix(-1 0 0 1 1553.6138 1450)">
				<stop  offset="0" style="stop-color:#53D8FF"/>
				<stop  offset="1" style="stop-color:#3840F7"/>
			</linearGradient>
			<path class="st29" d="M936.7,470.4V617c0,17.4-13.7,31.8-31.1,32.6l-183.3,8.6c-18.6,0.9-34.1-14-34.1-32.6V470.4
				c0-18,14.6-32.6,32.6-32.6h183.3C922.1,437.8,936.7,452.4,936.7,470.4z"/>
			<g>
				<path class="st2" d="M749,614.3h126.3c9.5,0,17.2-7.7,17.2-17.2v-92.4c0-9.5-7.7-17.2-17.2-17.2H749c-9.5,0-17.2,7.7-17.2,17.2
					v92.4C731.8,606.6,739.5,614.3,749,614.3z M875.3,498.9c3.2,0,5.9,2.6,5.9,5.9v92.4c0,3.2-2.6,5.9-5.9,5.9H749
					c-3.2,0-5.9-2.6-5.9-5.9v-92.4c0-3.2,2.6-5.9,5.9-5.9L875.3,498.9L875.3,498.9z"/>
				<path class="st2" d="M812,553c1.1,0,2.3-0.3,3.3-1l70.8-50.2c2.5-1.8,3.1-5.3,1.3-7.9c-1.8-2.5-5.3-3.1-7.9-1.3L812,540.4
					l-66.6-47.3c-2.5-1.8-6.1-1.2-7.9,1.3c-1.8,2.5-1.2,6.1,1.3,7.9l69.9,49.7C809.7,552.7,810.9,553,812,553z"/>
				<path class="st2" d="M881.9,610.4l1.6-11.2l-0.8,5.6l4.7-3.1c-1.3-2.1-26.8-46.8-43.7-76.3c-1.5-2.7-5-3.7-7.7-2.1
					c-2.7,1.5-3.7,5-2.1,7.7c0,0,10.9,19.1,21.9,38.3c5.5,9.6,11,19.1,15.1,26.3C879.2,610,879.2,610,881.9,610.4z"/>
				<path class="st2" d="M742.6,610.4c2.7-0.4,2.7-0.4,10.9-14.7c4.1-7.2,9.6-16.7,15.1-26.3c10.9-19.1,21.9-38.3,21.9-38.3
					c1.5-2.7,0.6-6.2-2.1-7.7c-2.7-1.5-6.2-0.6-7.7,2.1c-16.8,29.5-42.4,74.1-43.7,76.3l4.7,3.1L742.6,610.4z"/>
			</g>
		</g>
		<g>
			
				<linearGradient id="SVGID_30_" gradientUnits="userSpaceOnUse" x1="1014.0426" y1="-1608.2649" x2="673.2737" y2="-1112.6005" gradientTransform="matrix(-1 0 0 1 1553.6138 1450)">
				<stop  offset="0" style="stop-color:#53D8FF"/>
				<stop  offset="1" style="stop-color:#3840F7"/>
			</linearGradient>
			<path class="st30" d="M824.3,28.7v128.9c0,15.3-12,27.9-27.3,28.7l-161.2,7.6c-16.4,0.8-30-12.3-30-28.7V28.7
				c0-15.8,12.8-28.7,28.7-28.7h161.2C811.4,0,824.3,12.8,824.3,28.7z"/>
			<path class="st2" d="M783,183.6c2.3,0,4.5-0.7,6.1-2.2l4.7-4.3c2.3-2.1,3.2-5.3,2.6-9c-0.5-3.5-2.3-7.1-5.1-10.1l-3.1-3.4
				c-0.2-0.2-0.4-0.5-0.7-0.7l-58.2-58.2c-0.6-0.6-1.5-0.6-2,0c-0.6,0.6-0.6,1.5,0,2l58.2,58.1c0.2,0.2,0.4,0.4,0.6,0.6l3.1,3.4
				c2.4,2.6,4,5.7,4.4,8.6c0.4,2.7-0.2,5-1.7,6.4l-4.7,4.3c-3.3,3-10,1.2-14.7-3.9l-3.1-3.4c-0.2-0.2-0.4-0.4-0.6-0.6L722.4,116
				c-0.5-0.6-1.4-0.7-2-0.2s-0.7,1.4-0.2,2l46.4,55.2c0.2,0.2,0.4,0.5,0.6,0.7l3.1,3.4C774.1,181.4,778.9,183.6,783,183.6z
				 M781.6,174.5c1.6,0,3-0.5,4.1-1.5c3.2-3,2.1-9.2-2.5-14.3c-2.1-2.3-4.7-4-7.2-4.7c-2.8-0.8-5.2-0.5-6.8,1s-2.2,3.9-1.6,6.7
				c0.5,2.6,2,5.2,4.1,7.6C774.8,172.6,778.5,174.5,781.6,174.5z M773.3,156.4c0.7,0,1.4,0.2,1.9,0.3c2,0.6,4.1,2,5.9,3.9
				c3.4,3.7,4.6,8.4,2.6,10.2c-1.7,1.6-6.3,0.5-10-3.5c-1.8-1.9-3-4.1-3.4-6.2c-0.2-1-0.4-3,0.8-4
				C771.8,156.6,772.6,156.4,773.3,156.4z M700.9,94.3c0.3,0,0.7-0.1,0.9-0.3c0.6-0.5,0.7-1.4,0.2-2l-16.7-20l-1.1,0.6
				c-13,7.9-28.7,5.8-38.9-5.4c-6.6-7.2-9.9-16.9-8.8-26.4c0.1-1.3,1-2.3,2.2-2.7c1-0.3,2.4-0.3,3.5,0.9l18.1,19.7
				c1.6,1.7,3.9,2.6,6.2,2.4l9.7-0.8c3.4-0.3,6.2-2.9,6.8-6.2l1.7-9.6c0.4-2.3-0.3-4.7-1.9-6.4l-18.1-19.7c-1.1-1.2-1-2.6-0.6-3.5
				c0.5-1.2,1.6-1.9,2.9-2c9.6-0.2,18.9,3.9,25.5,11.1c10.2,11.2,11.1,27,2,39.3l-0.7,1L715.5,86c0.6,0.6,1.5,0.6,2,0
				c0.6-0.6,0.6-1.5,0-2l-20-20c9.1-13.3,8-30-2.9-41.9c-7.2-7.8-17.3-12.2-27.7-12c-2.4,0-4.5,1.5-5.5,3.7c-1,2.3-0.5,4.8,1.1,6.6
				L680.6,40c1,1.1,1.4,2.6,1.2,4l-1.7,9.6c-0.4,2.1-2.1,3.7-4.2,3.9l-9.7,0.8c-1.4,0.1-2.9-0.4-3.9-1.5l-18.1-19.7
				c-1.7-1.8-4.1-2.5-6.5-1.7c-2.3,0.8-3.9,2.7-4.2,5.1c-1.1,10.4,2.4,20.8,9.6,28.6c10.9,11.9,27.5,14.5,41.5,6.5l15.2,18.1
				C700.1,94.1,700.5,94.3,700.9,94.3z"/>
			<g>
				<path class="st2" d="M657.3,184.4c0.4,0,0.8,0,1.1,0c3.6-0.3,6.9-2,9.2-4.8l54-66.1c2.3-2.9,2-7-0.8-9.4l-10.6-9.3
					c-2.8-2.4-6.9-2.2-9.4,0.5l-58.1,62.4c-2.5,2.7-3.7,6.1-3.6,9.8s1.8,6.9,4.5,9.3l5,4.4C651.1,183.2,654.1,184.4,657.3,184.4z
					 M707.7,97.6l10.6,9.3c1.2,1.1,1.4,2.9,0.3,4.1l-54,66.1c-1.6,2-4,3.2-6.6,3.5c-2.6,0.2-5.1-0.6-7-2.3l-5-4.4
					c-2-1.7-3.1-4.1-3.2-6.7c-0.1-2.6,0.8-5.1,2.5-7l58.1-62.4C704.6,96.6,706.5,96.5,707.7,97.6z"/>
			</g>
			<path class="st2" d="M718.2,105.2L765,50.4c0.7,0,1.4-0.3,2-0.7l14-10.8c0.4-0.3,0.7-0.7,0.9-1.1l6.2-12.3
				c0.8-1.5,0.3-3.4-1.1-4.7l-3.5-3.1c-1.4-1.2-3.4-1.4-4.8-0.5L767.3,25c-0.4,0.3-0.7,0.6-0.9,1l-9.1,15.1
				c-0.5,0.8-0.6,1.8-0.4,2.7L708.6,98L718.2,105.2z M763.9,47.3l-46.1,53.9l-4.8-3.6l47.4-53.3l-0.5-0.9c-0.2-0.3-0.2-0.6-0.1-0.8
				l9.1-15.1l0.1-0.1l11.4-7.9c0.3-0.2,0.8-0.1,1.3,0.3l3.5,3.1c0.5,0.4,0.6,1,0.5,1.2l-6.2,12.3l-0.1,0.1l-14,10.8
				c-0.1,0.1-0.3,0.1-0.6,0.1L763.9,47.3z"/>
		</g>
	</g>
</g>
<g id="Text">
</g>
</svg>
